<?xml version="1.0" encoding="UTF-8"?>
<svg width="317px" height="262px" viewBox="0 0 317 262" version="1.1" xmlns="http://www.w3.org/2000/svg" xmlns:xlink="http://www.w3.org/1999/xlink">
    <!-- Generator: Sketch 51.3 (57544) - http://www.bohemiancoding.com/sketch -->
    <title>newsbollen</title>
    <desc>Created with Sketch.</desc>
    <defs></defs>
    <g id="Page-1" stroke="none" stroke-width="1" fill="none" fill-rule="evenodd">
        <g id="Desktop" transform="translate(0.000000, -2267.000000)">
            <rect fill="#FFFFFF" x="0" y="0" width="1004" height="4112"></rect>
            <g id="Group-35" transform="translate(-40.000000, 2240.000000)">
                <g id="Group-14" transform="translate(129.500000, 160.000000) scale(-1, 1) translate(-129.500000, -160.000000) translate(0.000000, 31.000000)">
                    <g id="Group-5">
                        <ellipse id="Oval" fill="#FFC300" cx="129.5" cy="129" rx="129.5" ry="129"></ellipse>
                        <path d="M79.2232878,172.790524 C78.2488579,173.77669 77.3616035,174.836312 76.3949225,175.829824 C75.0427314,177.216332 73.6847286,178.60284 72.2782949,179.950784 C68.7757712,183.322478 65.244189,186.723555 62.1426734,190.444172 C61.0152017,191.793952 60.2325581,193.029873 60.2325581,194.816724 C60.2325581,196.445642 60.9280261,198.030485 62.1426734,199.189275 C63.3573207,200.34072 65.0272185,201 66.7532963,201 C68.3127717,201 70.3429956,200.393976 71.3581075,199.189275 C74.3879455,195.597209 77.8807829,192.399976 81.2612607,189.110921 C83.7719192,186.672135 86.0733562,184.088271 88.438722,181.526445 C89.6146246,180.268487 90.3488372,178.881978 90.3488372,177.163075 C90.3488372,175.526812 89.6533693,173.949314 88.438722,172.790524 C87.1969534,171.613369 85.4747501,171 83.7602958,171 C82.0884607,171 80.4263117,171.58215 79.2232878,172.790524" id="Fill-175" fill="#E98700"></path>
                        <path d="M74.2759064,169.764687 C71.7190728,172.057691 71.5098958,176.191634 74.2759064,178.453774 C75.5654929,179.510408 76.8652335,180.550702 78.2055911,181.563763 C79.3611418,182.438845 80.5837104,183.255829 81.6580272,184.221687 C84.2879713,186.603652 88.7375522,186.581865 91.3776505,184.221687 C94.1010133,181.794334 93.9405766,177.967215 91.3776505,175.525338 C90.3378579,174.528616 89.1315361,173.704369 87.9577078,172.843812 C86.6092269,171.847091 85.2932394,170.814059 83.9955296,169.764687 C82.5779999,168.615462 80.7888257,168 79.0098056,168 C77.3099885,168 75.6203257,168.562812 74.2759064,169.764687" id="Fill-177" fill="#E98700"></path>
                        <path d="M77.1611325,169.71878 C75.971718,170.816208 75.2906977,172.324954 75.2906977,173.877456 C75.2906977,175.575233 76.0570827,176.760175 77.1611325,178.037883 C78.3657228,179.43111 79.9895485,180.437524 81.5602585,181.473692 C83.223921,182.781155 84.7661761,184.303903 86.7333575,185.201799 C88.3230374,185.922916 89.9259962,186.241468 91.6807144,185.793395 C93.2931582,185.38908 94.6855508,184.400169 95.5240216,183.071703 C97.22183,180.392016 96.3283465,176.441624 93.2210725,174.962633 C92.9934333,174.854115 92.7771762,174.740347 92.568507,174.617827 C92.0013062,174.164503 91.4454873,173.698927 90.8593166,173.264857 C89.6717992,172.373962 88.4330629,171.577582 87.2076057,170.754948 C86.8320011,170.438147 86.4943364,170.100342 86.1699507,169.71878 C85.1759265,168.570593 83.1878782,168 81.6626961,168 C79.9781666,168 78.3505469,168.621351 77.1611325,169.71878" id="Fill-179" fill="#E98700"></path>
                        <path d="M60.4347525,154.787522 C59.0717075,155.989262 58.5401803,157.439515 58.4072985,159.101005 C57.5757807,169.895363 57.7650365,180.7483 56.3637377,191.510707 C55.8865712,194.15915 55.248336,196.745465 54.4450051,199.33178 C53.466512,202.518077 55.6248344,205.90851 59.2468698,206.787183 C62.8608518,207.665855 66.6983169,205.739876 67.7029837,202.553579 C68.9754275,198.490384 69.8472126,194.439615 70.419007,190.250389 C70.8679864,186.954036 71.1518702,183.629281 71.3411261,180.318727 C71.5424621,176.729483 71.5988362,173.149114 71.8484929,169.566971 C72.0900962,166.087783 72.3880735,162.580193 72.2390848,159.101005 C72.0981496,155.77625 69.206964,153 65.3272184,153 C63.4990871,153 61.7233032,153.64436 60.4347525,154.787522" id="Fill-181" fill="#E98700"></path>
                        <path d="M111.778472,183.285106 C107.887865,184.545091 103.997258,185.865775 100.163149,187.269233 C96.1439592,188.740748 92.1169762,190.122132 87.9049117,191.032632 C83.5252998,191.983599 79.2645297,193.287729 74.9570021,194.464941 C70.7274036,195.618241 66.5075462,196.990428 62.1357272,197.582713 C60.5186997,197.796083 58.9192062,199.223452 58.1321229,200.490795 C57.2320425,201.947594 56.9826696,203.729967 57.4560885,205.361509 C57.9217145,206.939709 59.0399962,208.313736 60.5342855,209.141463 C61.0739441,209.352993 61.6038615,209.566363 62.1357272,209.777893 C63.324145,210.074036 64.5145111,210.074036 65.695136,209.777893 C70.0689032,209.202163 74.3374663,207.971609 78.5651166,206.827506 C82.8745923,205.650294 87.1567929,204.412382 91.5383531,203.494524 C95.7660034,202.606097 99.8027275,201.287252 103.829711,199.813898 C107.671612,198.417798 111.570012,197.157813 115.429448,195.791144 C117.165317,195.169429 118.562195,194.365614 119.528515,192.809487 C120.459767,191.314059 120.70914,189.485702 120.220135,187.815533 C119.433052,185.1245 116.580849,183 113.613701,183 C113.001958,183 112.384371,183.09013 111.778472,183.285106" id="Fill-183" fill="#E98700"></path>
                        <path d="M91.217765,135.267375 C87.3679036,136.756777 83.6936303,138.587127 79.8979398,140.185992 C77.0661155,141.260874 74.2436311,142.35729 71.4416941,143.507539 C69.8221746,144.173284 68.2194667,144.848001 66.6615897,145.632181 C64.829123,146.5653 63.2096034,147.860901 61.5919518,149.090107 C60.3198725,150.068088 58.7563917,151.3924 58.076455,152.829763 C57.5067278,153.770061 57.2209302,154.783931 57.2209302,155.871374 C57.2209302,157.441528 57.8765835,159.04757 59.0552649,160.143986 C60.8597123,161.809245 62.9013904,162.282983 65.3297357,161.846929 C65.8695756,161.750028 66.3926038,161.602882 66.9249718,161.453942 C69.0338963,160.872537 70.6160567,159.293411 71.2324828,157.393077 C72.6969619,156.511997 74.2156117,155.765501 75.8127157,155.072839 C78.8126562,153.901056 81.8350122,152.797463 84.820009,151.600558 C88.6736062,150.051938 92.3497475,148.171343 96.1884011,146.594012 C97.1597392,146.046701 97.9312058,145.307383 98.5084048,144.374264 C99.3788733,142.944078 99.6105,141.198068 99.1565863,139.599203 C98.7082763,138.050583 97.6304646,136.702943 96.1884011,135.89723 C95.2674978,135.376837 93.9954184,135 92.7980574,135 C92.239538,135 91.6996981,135.080751 91.217765,135.267375" id="Fill-185" fill="#E98700"></path>
                        <path d="M113.628853,166.626936 C112.385843,170.590246 111.618553,174.673377 110.502146,178.666182 C109.12486,183.549349 107.549997,188.36431 105.681646,193.094474 C105.088914,194.585785 105.524351,196.578501 106.331924,197.909436 C107.185534,199.301203 108.593512,200.350097 110.218248,200.775923 C111.894777,201.225712 113.722846,200.989757 115.226734,200.14548 C116.801597,199.264335 117.586151,197.994232 118.219166,196.418125 C120.039561,191.85571 121.670053,187.230619 123.062684,182.529948 C124.290348,178.385985 125.12094,174.142478 126.268038,169.972707 C127.18495,166.658273 125.159304,163.142909 121.693071,162.223053 C121.117604,162.071894 120.542136,162.000001 119.978178,162.000001 C117.095086,161.998158 114.49589,163.880269 113.628853,166.626936" id="Fill-187" fill="#E98700"></path>
                        <path d="M94.6820518,134.20383 C94.7835289,134.274595 94.8831269,134.347086 94.9846041,134.417852 C94.8831269,134.34536 94.7816497,134.274595 94.6820518,134.20383 M79.2011445,132.025643 C78.3085212,133.420235 78.0698619,135.123777 78.534026,136.682337 C79.0075862,138.270239 80.0994055,139.402482 81.5576701,140.299992 C82.4841191,140.864387 83.3917761,141.442591 84.3050707,142.020794 C86.7330062,143.807183 89.110203,145.653982 91.6527701,147.300567 C93.8871472,148.734857 96.3019282,149.905071 98.5569766,151.303115 C100.146786,152.547547 101.620084,153.859292 102.995664,155.326375 C104.577956,157.021287 106.167765,158.693762 107.810192,160.340347 C110.959743,163.486809 114.518961,166.313964 117.969185,169.177365 C119.324093,170.302704 120.891352,171 122.759283,171 C124.542651,171 126.279038,170.337224 127.543745,169.177365 C130.148325,166.783431 130.155842,162.775705 127.543745,160.38177 C125.147756,158.18805 122.635256,156.108244 120.194166,153.959398 C117.711733,151.765678 115.432255,149.373469 113.167811,146.986439 C110.508733,144.166187 107.477572,141.589299 103.957817,139.695899 C102.499553,138.912304 101.003704,138.19257 99.5529563,137.379633 C98.1097253,136.575327 96.7341458,135.645023 95.382996,134.69746 C93.0490209,132.98874 90.6906161,131.368045 88.202546,129.852634 C87.240392,129.267527 86.1429352,129 85.0398407,129 C82.71902,129 80.3737697,130.18057 79.2011445,132.025643" id="Fill-189" fill="#E98700"></path>
                        <path d="M142.585947,64.7377851 C139.888583,66.9318227 137.297429,69.1745048 134.894889,71.6453132 C132.673638,73.9349625 130.338852,76.1088713 127.965611,78.2609739 C125.828596,80.1916599 123.636644,82.0669917 121.468498,83.9641297 C119.225273,85.9367506 117.221935,88.1374978 114.956735,90.0883125 C112.491934,92.2202863 109.930079,94.2415518 107.348081,96.2477207 C104.82285,98.2002129 102.352555,100.172834 99.9280404,102.220938 C97.4504208,104.310977 94.8427857,106.255082 92.319386,108.304863 C89.8710657,110.290903 87.545436,112.429587 85.2637553,114.581689 C82.5499104,117.149787 79.8983264,119.78498 77.0947524,122.270885 C74.6555881,124.436407 74.7233427,128.180361 77.0947524,130.35427 C79.5430727,132.596952 83.4563566,132.499663 85.9211577,130.35427 C90.8013175,126.090322 95.3793286,121.551281 100.411478,117.433267 C102.942203,115.356647 105.564488,113.384026 108.117187,111.335923 C110.717497,109.252593 113.209766,107.087072 115.870506,105.059096 C118.256565,103.237441 120.637131,101.397335 122.904162,99.4515524 C125.328677,97.3699005 127.564578,95.1205088 129.908519,92.9533096 C132.08399,90.9471407 134.38032,89.0634219 136.579597,87.0773817 C138.853953,85.0292779 141.128309,82.981174 143.30378,80.8424906 C144.572804,79.5894737 145.805205,78.3096184 147.12001,77.0985365 C148.608779,75.7281018 150.178121,74.4197307 151.719995,73.1046501 C154.289175,70.9039029 154.14451,66.9586611 151.719995,64.7377851 C150.5114,63.6307019 148.855991,63 147.149309,63 C145.358391,63 143.893427,63.6709595 142.585947,64.7377851" id="Fill-191" fill="#E98700"></path>
                        <path d="M168.029238,54.0865709 C165.462227,54.3514778 163.182736,55.0648218 160.811163,55.9374563 C155.274987,57.9874548 150.334524,61.4450958 146.343066,65.508733 C145.093386,66.781325 144.326665,68.25303 144.326665,69.9948361 C144.326665,71.6743112 145.055801,73.3035752 146.343066,74.4895963 C149.009676,76.9464779 153.422079,76.9257009 156.096206,74.4895963 C157.379711,73.319158 158.708318,72.2093193 160.100819,71.1514231 C161.686878,70.102184 163.314281,69.1100817 165.06947,68.3170924 C166.399956,67.8392212 167.752993,67.4202181 169.141735,67.0947116 C169.487511,67.0877859 169.829529,67.0929802 170.177184,67.1085629 C171.641095,67.3890526 173.059904,67.7855472 174.465559,68.25303 C176.98559,69.3940342 179.257564,70.8380365 181.503229,72.3911181 C184.836962,74.8757024 187.93955,77.680599 190.664416,80.7313569 C191.964834,82.3952492 193.113037,84.1041584 194.084592,85.9481182 C194.274393,86.4675435 194.42661,86.9869688 194.552517,87.518514 C194.561913,88.0621792 194.543121,88.591993 194.501778,89.1252696 C194.462315,89.2724401 194.419093,89.4178792 194.372112,89.5615868 C193.936134,90.3234106 193.453175,91.0436803 192.926994,91.7500987 C191.004554,93.7672003 188.830299,95.5436348 186.778194,97.4429999 C184.521253,99.5207011 182.34324,101.664196 180.116367,103.771331 C177.573785,106.178002 174.944759,108.506759 172.449158,110.958446 C170.278662,113.086358 168.091252,115.193494 165.896326,117.309286 C161.29788,121.738252 156.607353,126.094499 151.963806,130.474986 C147.141733,135.025151 142.768793,139.94584 138.031286,144.568725 C135.88334,146.655083 133.727877,148.734516 131.711476,150.926491 C129.533463,153.291607 127.408068,155.712129 125.307102,158.141308 C124.23031,159.391392 123.476744,160.556636 123.476744,162.227454 C123.476744,163.74937 124.13635,165.228 125.307102,166.306674 C126.477855,167.385347 128.082707,168 129.742056,168 C131.24731,168 133.1923,167.435558 134.17701,166.306674 C138.418404,161.448316 142.937923,156.84967 147.637847,152.35491 C152.328374,147.868807 156.584802,142.996598 161.408754,138.617843 C166.136866,134.317001 170.757862,129.917469 175.371342,125.50928 C177.68278,123.301722 179.954754,121.066462 182.241762,118.843322 C184.699779,116.443577 187.311891,114.171957 189.816889,111.806841 C192.111413,109.658151 194.351441,107.45752 196.655362,105.314024 C199.128412,103.006045 201.695424,100.928344 203.796389,98.3000516 C205.361778,96.3418183 206.555081,94.2416087 207.25415,91.8695665 C207.603684,90.6766198 207.656303,89.3486225 207.772814,88.1193159 C207.883688,86.9194435 207.665699,85.4408129 207.393212,84.2824945 C207.115088,83.041068 206.696022,81.9260351 206.184875,80.7538653 C204.657071,77.2390875 202.633154,74.160627 200.051108,71.2102913 C195.79468,66.3450077 190.660657,62.1376629 185.0324,58.6661705 C182.202298,56.922633 178.985078,55.7227605 175.743427,54.8362747 C173.847296,54.3185808 171.791432,54 169.788186,54 C169.196232,54 168.608037,54.0277027 168.029238,54.0865709" id="Fill-193" fill="#E98700"></path>
                        <path d="M152.504623,70.7737599 C149.936525,73.1381906 149.944117,77.0824035 152.504623,79.4538244 C155.027168,81.7833042 157.509853,84.1407447 160.093136,86.4125555 C162.513184,88.5393198 164.690279,90.8827799 166.962277,93.1318726 C171.511968,97.6457857 175.959163,102.19465 181.097258,106.154591 C182.537899,107.264283 183.993724,108 185.927865,108 C187.736732,108 189.484861,107.328942 190.760369,106.154591 C193.298099,103.818121 193.510683,99.5715822 190.760369,97.263073 C188.247315,95.1590268 185.749445,93.0462428 183.376849,90.8111305 C181.13522,88.7123269 178.9828,86.5488641 176.782929,84.4220997 C174.51093,82.2306762 172.318651,79.9518753 169.928972,77.8618094 C167.243193,75.5183492 164.557413,73.1748891 161.934271,70.7737599 C160.643578,69.5924183 158.927716,69 157.211855,69 C155.501687,69 153.791519,69.5889232 152.504623,70.7737599" id="Fill-195" fill="#E98700"></path>
                    </g>
                </g>
                <g id="Group-2" transform="translate(269.000000, 27.000000)">
                    <circle id="Oval-4" fill="#EC2219" cx="44" cy="44" r="44"></circle>
                    <g id="Group-12" transform="translate(19.000000, 14.000000)" fill="#BA191B">
                        <path d="M7.07814864,51.4139856 C7.11266876,51.439074 7.14718888,51.4641625 7.18261742,51.4884147 C7.14718888,51.4641625 7.11266876,51.439074 7.07814864,51.4139856 M14.4636372,47.0786954 C14.454553,47.1665051 14.441835,47.2526422 14.4273003,47.3404519 C14.4391098,47.2534785 14.4518277,47.1665051 14.4636372,47.0786954 M14.531769,46.6730982 C14.5608386,46.8152663 14.5826408,46.9599432 14.5962671,47.1062927 C14.5735565,46.9616158 14.5526628,46.8177751 14.531769,46.6730982 M14.5771902,46.5785983 C14.6326041,46.6772796 14.6807506,46.7809787 14.7198128,46.8888592 C14.6725748,46.7851601 14.6244283,46.681461 14.5771902,46.5785983 M14.251066,46.1395498 C14.3137472,46.2056161 14.3718864,46.2741913 14.424575,46.3452754 C14.3673443,46.2767002 14.3092051,46.208125 14.251066,46.1395498 M12.0408699,45.5909482 C12.5386864,45.6896296 13.0237849,45.8108906 13.5097918,45.9580764 C13.8340993,46.1044259 14.1429635,46.2649922 14.4472856,46.4481381 C14.4600035,46.4581735 14.4727215,46.4698815 14.4854394,46.4815895 C14.4863478,46.4840983 14.4872562,46.4866071 14.4881647,46.4899523 C14.4908899,46.577762 14.4908899,46.6647354 14.4881647,46.7517088 C14.4154907,47.0326998 14.328282,47.2994741 14.2256301,47.5662483 C14.034861,47.8999251 13.8331908,48.2152038 13.6088101,48.5271372 C13.0919167,49.0749025 12.5286937,49.5649642 11.9218664,50.0299375 C11.2505409,50.4773488 10.5601385,50.8787645 9.81704754,51.214114 C9.37555339,51.3546095 8.93315082,51.4683439 8.4780303,51.5620076 C8.24819899,51.5703704 8.02200136,51.5712067 7.79307847,51.5636802 C7.57869037,51.5151758 7.3733865,51.4608174 7.16717421,51.3964236 C7.0463538,51.3362113 6.92825865,51.2718175 6.81379721,51.2032423 C6.79653715,51.1881892 6.78018551,51.1739724 6.76383388,51.1589193 C6.70296946,51.0652556 6.64573873,50.9707557 6.59123328,50.8737469 C6.57488165,50.8227336 6.55943844,50.7700478 6.54490365,50.7181982 C6.53672783,50.5383974 6.53581941,50.3602692 6.5430868,50.1796321 C6.63029552,49.8200305 6.74294012,49.4738094 6.88011217,49.1242432 C7.27891039,48.3506816 7.73857302,47.6122438 8.27726856,46.9131114 C8.60793496,46.5618726 8.95222772,46.2365586 9.32740691,45.9229525 C9.33104061,45.92128 9.3346743,45.9196074 9.338308,45.9170985 C9.76890106,45.7874747 10.2004025,45.6862845 10.644622,45.6060013 C11.1124604,45.5717137 11.5730315,45.5658598 12.0408699,45.5909482 M8.25092426,39.7361322 C8.22367153,39.7470039 8.19641881,39.7578755 8.17007451,39.7687472 C7.55779661,39.921787 6.95732823,40.1216586 6.37230306,40.3708708 C4.34470029,41.2330784 2.60234271,42.6857017 0.975355009,44.0797852 C-0.164717336,45.0540547 -0.27645351,46.6906602 0.489348073,47.8689827 C-0.037537951,49.4428669 -0.161992064,51.1037246 0.368527657,52.7403301 C0.832732412,54.1728826 1.86379386,55.4038909 3.19100158,56.2493729 C3.85778493,56.6708594 4.60360118,57.036315 5.37939543,57.2637839 C6.18516767,57.5021245 6.99093992,57.5924431 7.83123229,57.6743988 C8.68515102,57.7571908 9.58449095,57.5673546 10.4166075,57.4327131 C11.0534128,57.329014 11.6765918,57.0981999 12.2725181,56.8673859 C13.0183343,56.578032 13.7150957,56.2702799 14.4127655,55.8914438 C15.1022594,55.5109351 15.7426985,55.0350902 16.3722364,54.5759709 C16.8936719,54.1929534 17.384221,53.7965553 17.8647773,53.3683785 C18.497949,52.8063965 19.0184761,52.1164631 19.5208346,51.4532909 C20.0340943,50.776738 20.3338743,49.9797605 20.6790755,49.2279423 C21.0279103,48.4660886 21.0769652,47.6022084 21.1659908,46.7926867 C21.2486574,46.0575941 21.0351777,45.2254926 20.8289654,44.5179974 C20.6118521,43.768688 20.0795155,42.9650202 19.5062998,42.4063832 C18.408015,41.3401226 17.0326608,40.5673973 15.5328525,40.0773356 C13.944927,39.5588402 12.267976,39.3263536 10.6101019,39.4099819 C10.3793621,39.3598049 10.1595235,39.3372253 9.94513535,39.3372253 C9.36556073,39.3372253 8.82959046,39.501973 8.25092426,39.7361322" id="Fill-197"></path>
                        <path d="M12.2824559,15.4730272 C12.2796697,15.4535136 12.2768834,15.434 12.2740972,15.4144864 C12.2731684,15.4085474 12.2722397,15.4026085 12.2713109,15.3966696 C12.2750259,15.4212737 12.2787409,15.4475746 12.2824559,15.4730272 M20.6217026,26.8384291 C20.6384201,26.9495718 20.6542088,27.0607145 20.6699976,27.1727057 C20.6542088,27.0607145 20.6384201,26.9495718 20.6217026,26.8384291 M20.5511176,26.3675574 C20.5622626,26.4388245 20.5734076,26.5100915 20.5836238,26.5805102 C20.5724788,26.5092431 20.5622626,26.4388245 20.5511176,26.3675574 M12.0669859,13.967086 C12.0725584,14.0001742 12.0772022,14.0332625 12.0827747,14.0663508 C12.0772022,14.0332625 12.0716297,14.0001742 12.0669859,13.967086 M36.6909359,1.44359399 C32.9972969,2.73912764 29.203353,3.77504551 25.5134291,5.08076017 C23.6624302,5.7382838 21.8114314,6.40089793 19.9613613,7.06181523 C18.4437837,7.60480249 16.9224912,8.14354765 15.4234886,8.73574313 C14.9071036,8.9419086 14.4427285,9.20067596 13.9792823,9.49507687 C13.5845635,9.70463601 13.2548572,9.97782647 12.9864485,10.3104062 C12.5731547,10.687952 12.2889572,11.1367649 12.1282834,11.6509059 C11.8060072,12.366122 11.9165284,13.0397655 12.0335509,13.7583752 C12.1115659,14.3056046 12.1905097,14.8511371 12.2713109,15.3966696 C12.2648097,15.3491582 12.2573797,15.3033437 12.2508784,15.2566807 C12.2592372,15.3092826 12.2666672,15.3618845 12.2740972,15.4144864 C12.2815272,15.4603009 12.2870997,15.5061155 12.2945297,15.5527784 L12.2824559,15.4730272 C12.902861,19.7244477 13.4926172,23.9818071 14.1863935,28.2221982 C14.9126761,32.6713 15.6668211,37.1136145 16.3912461,41.5576258 C16.6187899,43.3282733 16.8630511,45.0955271 17.0413712,46.8695683 C17.1212437,47.6781103 17.3394999,48.3678738 17.9877675,48.9634629 C18.5923837,49.5157828 19.4245438,49.827152 20.2789938,49.827152 C21.1371589,49.827152 21.9646751,49.5157828 22.5702202,48.9634629 C23.1339715,48.4484734 23.5899877,47.6153274 23.5212602,46.8695683 C22.8757789,40.109377 21.6293964,33.4034844 20.6003413,26.6891076 C20.2641338,24.3500204 19.9334988,22.0083878 19.5935763,19.6667553 C19.3251675,17.8129629 19.0047488,15.9659578 18.7075487,14.1138622 C20.3560801,13.5216667 22.0269014,12.9829216 23.685649,12.4178754 C25.2264453,11.8960986 26.7588829,11.3607471 28.3071092,10.8635744 C32.0044631,9.68088032 35.7528983,8.63053935 39.3425172,7.18738104 C39.859831,6.90740323 40.2703385,6.53325108 40.5768261,6.06068248 C41.0402723,5.33274019 41.1675111,4.45123432 40.9213923,3.63845028 C40.6845611,2.85451243 40.108736,2.17153627 39.3425172,1.75835691 C38.845636,1.49449904 38.1769359,1.31124084 37.5435284,1.31124084 C37.2444709,1.31124084 36.9537721,1.35111647 36.6909359,1.44359399" id="Fill-199"></path>
                        <path d="M40.6567824,10.6288867 C38.8503072,11.1880954 37.0085419,11.6504531 35.2068357,12.2206101 C33.411806,12.7932937 31.6606506,13.5125169 29.9209406,14.2073168 C25.7929446,15.8512554 21.6964236,17.5507781 17.5922723,19.2494586 C16.8206576,19.5686454 16.2302626,20.3653493 16.0099375,21.0668867 C15.7657676,21.8518 15.8926215,22.7074566 16.3561626,23.4123627 C16.8092121,24.0894768 17.5569822,24.6006811 18.4182531,24.8095421 C19.3749028,25.0419843 20.2008835,24.8609152 21.0707385,24.5038302 C25.6384309,22.6223963 30.2137537,20.7645435 34.8148287,18.9563793 C35.9755891,18.542026 37.1363496,18.1310413 38.315232,17.758797 C39.7001327,17.3208625 41.1165084,16.9772524 42.4861485,16.498051 C43.3598186,16.1948656 44.0560841,15.8403071 44.5491927,15.1008715 C45.0127338,14.3959655 45.1386339,13.5403088 44.8944641,12.7545533 C44.5043646,11.501387 43.0698669,10.4899267 41.5829109,10.4899267 C41.2738835,10.4899267 40.9619947,10.5345624 40.6567824,10.6288867" id="Fill-201"></path>
                        <path d="M40.4943051,43.3180228 C40.5401663,43.3715385 40.5869635,43.4267532 40.6318889,43.4802689 C40.5841557,43.4276026 40.5382944,43.3732374 40.4943051,43.3180228 M43.0428812,38.7513458 C43.1692337,38.7810768 43.2927784,38.8125067 43.4153871,38.8481838 C43.6138072,38.9509681 43.8047399,39.0596985 43.9919287,39.176074 C44.3812815,39.4767815 44.7640827,39.7842847 45.1272291,40.108777 C45.3490479,40.3067003 45.5718026,40.5097203 45.8011089,40.7067942 C45.6457422,40.9234055 45.4866317,41.1374685 45.3219055,41.3489831 C44.9157057,41.7660662 44.4917229,42.1457731 44.0340462,42.5076415 C43.70085,42.7123604 43.3620382,42.8966925 43.0073154,43.0665837 C42.7181086,43.1523788 42.4289018,43.2228837 42.1340794,43.2789478 C41.8130505,43.2891413 41.4995092,43.284894 41.1822241,43.2653565 C40.9444942,43.2169375 40.7123801,43.1608734 40.4802659,43.0963147 C40.4166217,43.0640353 40.3520415,43.0309065 40.2893333,42.9969283 C40.2799738,42.9671973 40.2715503,42.9374664 40.2631268,42.9068859 C40.2425361,42.5815442 40.2444079,42.2621486 40.2678065,41.9376563 C40.3847996,41.4313804 40.5364225,40.9420936 40.7273552,40.4562046 C40.9117362,40.1266155 41.1120283,39.8140156 41.3366549,39.5090608 C41.5200999,39.3281266 41.7072888,39.1565365 41.904773,38.9883441 C42.006791,38.9297316 42.1097448,38.874517 42.2136346,38.8201518 C42.3184604,38.7938186 42.4223502,38.7700339 42.52624,38.747948 C42.7003256,38.7437007 42.8716034,38.7445502 43.0428812,38.7513458 M39.0838371,0.907219302 C38.5119751,1.42963491 37.9794229,2.33770367 38.0833127,3.10136486 C38.5896585,6.73958609 39.118467,10.3778073 39.8297846,13.9879965 C40.3894793,16.8404707 40.9678928,19.6903965 41.5743847,22.5318277 C42.1921079,25.4131834 42.8341657,28.2911413 43.4977501,31.1606046 C43.5969602,31.5878811 43.6971063,32.0151576 43.7972523,32.4424341 C41.7522141,32.2020379 39.6163893,32.637809 37.9251381,33.715769 C35.6854235,35.1462534 34.3030339,37.2775392 33.5383674,39.6288342 C33.1948759,40.6830094 33.0713312,41.836571 33.1059612,42.9340685 C33.1443349,44.1742747 33.5505347,45.2853635 34.1570266,46.3820116 C34.4462333,46.9086744 34.9516432,47.3673808 35.4037043,47.7776682 C35.828623,48.1624719 36.4313711,48.5132973 36.9601796,48.7834244 C38.1731633,49.4069254 39.6201331,49.7050845 40.9997149,49.7993742 C43.3433193,49.9641687 45.6251514,49.3890868 47.6028016,48.2508154 C49.7068043,47.0377918 51.2520482,45.2496863 52.4837509,43.3154744 C53.2736878,42.069322 53.051869,40.5097203 52.0419852,39.4810288 C52.1009497,39.2516756 52.1327718,39.0155267 52.1327718,38.7768295 C52.129028,37.9562548 51.877259,37.1084974 51.7190844,36.2955677 C51.5992836,35.6822603 51.4879062,35.0655551 51.3596818,34.4488498 C51.0826423,33.0744295 50.7803323,31.7042566 50.467727,30.3374814 C49.8228614,27.5096415 49.1705082,24.6809521 48.536874,21.8488649 C47.9388056,19.1611852 47.3248262,16.4718066 46.7688753,13.7773313 C46.1464724,10.753267 45.6008169,7.72580483 45.1403323,4.67540734 C45.0663927,4.15129282 44.9924531,3.62632884 44.9194495,3.10136486 C44.876396,2.8286894 44.8380223,2.55176665 44.7949689,2.27824173 C44.6330505,1.7524283 44.339164,1.29627028 43.9189251,0.907219302 C43.2778032,0.329589035 42.4055032,0 41.5013811,0 C40.5972589,0 39.7212151,0.329589035 39.0838371,0.907219302" id="Fill-203"></path>
                    </g>
                </g>
            </g>
        </g>
    </g>
</svg>