<?xml version="1.0" encoding="utf-8"?>
<!-- Generator: Adobe Illustrator 23.0.2, SVG Export Plug-In . SVG Version: 6.00 Build 0)  -->
<svg version="1.1" id="Layer_1" xmlns="http://www.w3.org/2000/svg" xmlns:xlink="http://www.w3.org/1999/xlink" x="0px" y="0px"
	 viewBox="0 0 1003 266.9" style="enable-background:new 0 0 1003 266.9;" xml:space="preserve">
<style type="text/css">
	.st0{fill-rule:evenodd;clip-rule:evenodd;fill:#FFFFFF;}
	.st1{fill-rule:evenodd;clip-rule:evenodd;fill:#212759;}
	.st2{fill-rule:evenodd;clip-rule:evenodd;fill:#FFC300;}
	.st3{fill-rule:evenodd;clip-rule:evenodd;fill:#E98700;}
	.st4{fill-rule:evenodd;clip-rule:evenodd;fill:#38AF5B;}
	.st5{fill-rule:evenodd;clip-rule:evenodd;fill:#138939;}
	.st6{fill-rule:evenodd;clip-rule:evenodd;fill:#2CA9E4;}
	.st7{fill-rule:evenodd;clip-rule:evenodd;fill:#1E7EC5;}
	.st8{fill-rule:evenodd;clip-rule:evenodd;fill:#EC2219;}
	.st9{fill-rule:evenodd;clip-rule:evenodd;fill:#BA191B;}
</style>
<title>headerback</title>
<desc>Created with Sketch.</desc>
<g id="Page-1">
	<g id="Desktop" transform="translate(-2.000000, 0.000000)">
		<rect y="0" class="st0" width="1004" height="4112"/>
		<rect id="Rectangle-Copy-8" y="-2" class="st1" width="1004" height="397"/>
		<g id="Group-23" transform="translate(-26.000000, -12.000000)">
			<g id="Group-14" transform="translate(0.000000, 75.000000)">
				<g id="Group-5">
					<ellipse id="Oval" class="st2" cx="67.5" cy="67" rx="67.5" ry="67"/>
					<path id="Fill-175" class="st3" d="M41.3,89.7c-0.5,0.5-1,1.1-1.5,1.6c-0.7,0.7-1.4,1.4-2.1,2.1c-1.8,1.8-3.7,3.5-5.3,5.5
						c-0.6,0.7-1,1.3-1,2.3c0,0.8,0.4,1.7,1,2.3c0.6,0.6,1.5,0.9,2.4,0.9c0.8,0,1.9-0.3,2.4-0.9c1.6-1.9,3.4-3.5,5.2-5.2
						c1.3-1.3,2.5-2.6,3.7-3.9c0.6-0.7,1-1.4,1-2.3c0-0.8-0.4-1.7-1-2.3c-0.6-0.6-1.5-0.9-2.4-0.9C42.8,88.8,41.9,89.1,41.3,89.7"/>
					<path id="Fill-177" class="st3" d="M38.7,88.2c-1.3,1.2-1.4,3.3,0,4.5c0.7,0.5,1.3,1.1,2,1.6c0.6,0.5,1.2,0.9,1.8,1.4
						c1.4,1.2,3.7,1.2,5.1,0c1.4-1.3,1.3-3.2,0-4.5c-0.5-0.5-1.2-0.9-1.8-1.4c-0.7-0.5-1.4-1.1-2.1-1.6c-0.7-0.6-1.7-0.9-2.6-0.9
						C40.3,87.3,39.4,87.5,38.7,88.2"/>
					<path id="Fill-179" class="st3" d="M40.2,88.1c-0.6,0.6-1,1.4-1,2.2c0,0.9,0.4,1.5,1,2.2s1.5,1.2,2.3,1.8
						c0.9,0.7,1.7,1.5,2.7,1.9c0.8,0.4,1.7,0.5,2.6,0.3c0.8-0.2,1.6-0.7,2-1.4c0.9-1.4,0.4-3.4-1.2-4.2c-0.1-0.1-0.2-0.1-0.3-0.2
						c-0.3-0.2-0.6-0.5-0.9-0.7c-0.6-0.5-1.3-0.9-1.9-1.3c-0.2-0.2-0.4-0.3-0.5-0.5c-0.5-0.6-1.6-0.9-2.3-0.9
						C41.7,87.3,40.8,87.6,40.2,88.1"/>
					<path id="Fill-181" class="st3" d="M31.5,80.4c-0.7,0.6-1,1.4-1.1,2.2c-0.4,5.6-0.3,11.2-1.1,16.8c-0.2,1.4-0.6,2.7-1,4.1
						c-0.5,1.7,0.6,3.4,2.5,3.9c1.9,0.5,3.9-0.5,4.4-2.2c0.7-2.1,1.1-4.2,1.4-6.4c0.2-1.7,0.4-3.4,0.5-5.2c0.1-1.9,0.1-3.7,0.3-5.6
						c0.1-1.8,0.3-3.6,0.2-5.4c-0.1-1.7-1.6-3.2-3.6-3.2C33.1,79.5,32.2,79.8,31.5,80.4"/>
					<path id="Fill-183" class="st3" d="M58.3,95.2c-2,0.7-4.1,1.3-6.1,2.1c-2.1,0.8-4.2,1.5-6.4,2c-2.3,0.5-4.5,1.2-6.7,1.8
						c-2.2,0.6-4.4,1.3-6.7,1.6c-0.8,0.1-1.7,0.9-2.1,1.5c-0.5,0.8-0.6,1.7-0.4,2.5s0.8,1.5,1.6,2c0.3,0.1,0.6,0.2,0.8,0.3
						c0.6,0.2,1.2,0.2,1.9,0c2.3-0.3,4.5-0.9,6.7-1.5s4.5-1.3,6.8-1.7c2.2-0.5,4.3-1.1,6.4-1.9c2-0.7,4-1.4,6-2.1
						c0.9-0.3,1.6-0.7,2.1-1.5s0.6-1.7,0.4-2.6c-0.4-1.4-1.9-2.5-3.4-2.5C58.9,95,58.6,95.1,58.3,95.2"/>
					<path id="Fill-185" class="st3" d="M47.5,70.3c-2,0.8-3.9,1.7-5.9,2.6c-1.5,0.6-2.9,1.1-4.4,1.7c-0.8,0.3-1.7,0.7-2.5,1.1
						c-1,0.5-1.8,1.2-2.6,1.8c-0.7,0.5-1.5,1.2-1.8,1.9c-0.3,0.5-0.4,1-0.4,1.6c0,0.8,0.3,1.6,1,2.2c0.9,0.9,2,1.1,3.3,0.9
						c0.3-0.1,0.6-0.1,0.8-0.2c1.1-0.3,1.9-1.1,2.2-2.1c0.8-0.5,1.6-0.8,2.4-1.2c1.6-0.6,3.1-1.2,4.7-1.8c2-0.8,3.9-1.8,5.9-2.6
						c0.5-0.3,0.9-0.7,1.2-1.2c0.5-0.7,0.6-1.6,0.3-2.5c-0.2-0.8-0.8-1.5-1.5-1.9c-0.5-0.3-1.1-0.5-1.8-0.5
						C48.1,70.1,47.8,70.2,47.5,70.3"/>
					<path id="Fill-187" class="st3" d="M59.2,86.5c-0.6,2.1-1,4.2-1.6,6.3c-0.7,2.5-1.5,5-2.5,7.5c-0.3,0.8-0.1,1.8,0.3,2.5
						c0.4,0.7,1.2,1.3,2,1.5c0.9,0.2,1.8,0.1,2.6-0.3c0.8-0.5,1.2-1.1,1.6-1.9c0.9-2.4,1.8-4.8,2.5-7.2c0.6-2.2,1.1-4.4,1.7-6.5
						c0.5-1.7-0.6-3.5-2.4-4c-0.3-0.1-0.6-0.1-0.9-0.1C61,84.1,59.7,85.1,59.2,86.5"/>
					<path id="Fill-189" class="st3" d="M49.4,69.7c0.1,0,0.1,0.1,0.2,0.1C49.5,69.8,49.4,69.7,49.4,69.7 M41.3,68.6
						c-0.5,0.7-0.6,1.6-0.3,2.4c0.2,0.8,0.8,1.4,1.6,1.9c0.5,0.3,1,0.6,1.4,0.9c1.3,0.9,2.5,1.9,3.8,2.7c1.2,0.7,2.4,1.4,3.6,2.1
						c0.8,0.6,1.6,1.3,2.3,2.1c0.8,0.9,1.7,1.7,2.5,2.6c1.6,1.6,3.5,3.1,5.3,4.6c0.7,0.6,1.5,0.9,2.5,0.9c0.9,0,1.8-0.3,2.5-0.9
						c1.4-1.2,1.4-3.3,0-4.6c-1.2-1.1-2.6-2.2-3.8-3.3c-1.3-1.1-2.5-2.4-3.7-3.6c-1.4-1.5-3-2.8-4.8-3.8c-0.8-0.4-1.5-0.8-2.3-1.2
						c-0.8-0.4-1.5-0.9-2.2-1.4c-1.2-0.9-2.4-1.7-3.7-2.5c-0.5-0.3-1.1-0.4-1.6-0.4C43.1,67,41.9,67.6,41.3,68.6"/>
					<path id="Fill-191" class="st3" d="M74.3,33.6c-1.4,1.1-2.8,2.3-4,3.6c-1.2,1.2-2.4,2.3-3.6,3.4c-1.1,1-2.3,2-3.4,3
						c-1.2,1-2.2,2.2-3.4,3.2c-1.3,1.1-2.6,2.2-4,3.2c-1.3,1-2.6,2-3.9,3.1c-1.3,1.1-2.7,2.1-4,3.2c-1.3,1-2.5,2.1-3.7,3.3
						c-1.4,1.3-2.8,2.7-4.3,4c-1.3,1.1-1.2,3.1,0,4.2c1.3,1.2,3.3,1.1,4.6,0c2.5-2.2,4.9-4.6,7.6-6.7c1.3-1.1,2.7-2.1,4-3.2
						c1.4-1.1,2.7-2.2,4-3.3c1.2-0.9,2.5-1.9,3.7-2.9c1.3-1.1,2.4-2.2,3.7-3.4c1.1-1,2.3-2,3.5-3.1s2.4-2.1,3.5-3.2
						c0.7-0.7,1.3-1.3,2-1.9c0.8-0.7,1.6-1.4,2.4-2.1c1.3-1.1,1.3-3.2,0-4.3c-0.6-0.6-1.5-0.9-2.4-0.9C75.8,32.7,75,33.1,74.3,33.6"
						/>
					<path id="Fill-193" class="st3" d="M87.6,28.1c-1.3,0.1-2.5,0.5-3.8,1c-2.9,1.1-5.5,2.9-7.5,5c-0.7,0.7-1.1,1.4-1.1,2.3
						c0,0.9,0.4,1.7,1.1,2.3c1.4,1.3,3.7,1.3,5.1,0c0.7-0.6,1.4-1.2,2.1-1.7c0.8-0.5,1.7-1.1,2.6-1.5c0.7-0.2,1.4-0.5,2.1-0.6
						c0.2,0,0.4,0,0.5,0c0.8,0.1,1.5,0.4,2.2,0.6c1.3,0.6,2.5,1.3,3.7,2.1c1.7,1.3,3.4,2.7,4.8,4.3c0.7,0.9,1.3,1.8,1.8,2.7
						c0.1,0.3,0.2,0.5,0.2,0.8s0,0.6,0,0.8c0,0.1,0,0.2-0.1,0.2c-0.2,0.4-0.5,0.8-0.8,1.1c-1,1-2.1,2-3.2,3
						c-1.2,1.1-2.3,2.2-3.5,3.3c-1.3,1.2-2.7,2.5-4,3.7c-1.1,1.1-2.3,2.2-3.4,3.3c-2.4,2.3-4.8,4.6-7.3,6.8
						c-2.5,2.4-4.8,4.9-7.3,7.3c-1.1,1.1-2.2,2.2-3.3,3.3c-1.1,1.2-2.2,2.5-3.3,3.7c-0.6,0.6-1,1.3-1,2.1c0,0.8,0.3,1.6,1,2.1
						s1.4,0.9,2.3,0.9c0.8,0,1.8-0.3,2.3-0.9c2.2-2.5,4.6-4.9,7-7.2c2.4-2.3,4.7-4.9,7.2-7.1s4.9-4.5,7.3-6.8
						c1.2-1.1,2.4-2.3,3.6-3.5c1.3-1.2,2.6-2.4,3.9-3.7c1.2-1.1,2.4-2.3,3.6-3.4c1.3-1.2,2.6-2.3,3.7-3.6c0.8-1,1.4-2.1,1.8-3.3
						c0.2-0.6,0.2-1.3,0.3-1.9c0.1-0.6-0.1-1.4-0.2-2s-0.4-1.2-0.6-1.8c-0.8-1.8-1.9-3.4-3.2-5c-2.2-2.5-4.9-4.7-7.8-6.5
						c-1.5-0.9-3.2-1.5-4.8-2c-1-0.3-2.1-0.4-3.1-0.4C88.2,28,87.9,28.1,87.6,28.1"/>
					<path id="Fill-195" class="st3" d="M79.5,36.8c-1.3,1.2-1.3,3.3,0,4.5s2.6,2.4,4,3.6c1.3,1.1,2.4,2.3,3.6,3.5
						c2.4,2.3,4.7,4.7,7.4,6.8c0.8,0.6,1.5,1,2.5,1c0.9,0,1.9-0.3,2.5-1c1.3-1.2,1.4-3.4,0-4.6c-1.3-1.1-2.6-2.2-3.8-3.4
						c-1.2-1.1-2.3-2.2-3.4-3.3c-1.2-1.1-2.3-2.3-3.6-3.4c-1.4-1.2-2.8-2.4-4.2-3.7c-0.7-0.6-1.6-0.9-2.5-0.9
						C81.1,35.8,80.2,36.1,79.5,36.8"/>
				</g>
			</g>
			<g id="Group-15" transform="translate(168.000000, 173.000000)">
				<circle id="Oval-3" class="st4" cx="24.5" cy="24.5" r="24.5"/>
				<g id="Group-3" transform="translate(14.000000, 4.000000)">
					<path id="Fill-227" class="st5" d="M6.8,13.2c-0.6,0.5-0.5,1.3-0.5,1.9c0,0.3,0.1,0.7,0.1,1c0.1,0.7,0.2,1.4,0.2,2
						c0.1,0.6,0.1,1.3,0.2,2s0.1,1.3,0.2,2c0.1,0.2,0.2,0.4,0.4,0.6c0.3,0.2,0.7,0.4,1.1,0.4c0.8,0,1.6-0.6,1.5-1.3
						c0-0.5-0.1-1.1-0.1-1.6c-0.1-0.6-0.1-1.2-0.2-1.8c-0.1-0.6-0.2-1.2-0.2-1.8c0-0.3-0.1-0.6-0.1-0.9c0-0.1,0-0.3-0.1-0.4
						c0-0.1,0.1-0.2,0-0.3c0-0.4-0.1-0.7-0.1-1.1c-0.1-0.2-0.2-0.4-0.4-0.6C8.6,13.1,8.4,13,8.2,13c-0.1,0-0.3,0-0.4,0
						C7.4,12.8,7,13,6.8,13.2"/>
					<path id="Fill-229" class="st5" d="M13.4,14.5L13.4,14.5L13.4,14.5 M13.6,14.2l-0.1,0.1C13.5,14.3,13.5,14.3,13.6,14.2
						 M6.1,13.1L6.1,13.1L6.1,13.1 M6.1,13L6.1,13L6.1,13 M6.1,13C6.1,13,6.2,13,6.1,13C6.2,13,6.1,13,6.1,13L6.1,13 M6,12.8L6,12.8
						C6,12.9,6,12.9,6,12.8L6,12.8 M6,12.8L6,12.8L6,12.8 M6.1,12.7v0.1l0,0C6.1,12.8,6.1,12.8,6.1,12.7 M12.2,11.9
						C12.2,11.9,12.2,12,12.2,11.9C12.1,12,12.1,12,12.2,11.9C12.1,12,12.2,11.9,12.2,11.9 M8.3,9.8c-0.7,0-1.3,0.1-2,0.2
						c-1.2,0.2-2.3,0.8-2.9,1.8c-0.2,0.4-0.3,0.9-0.3,1.3c0,0.5,0.2,0.8,0.4,1.3c0.1,0.1,0.2,0.3,0.3,0.4C4,15,4.1,15.1,4.3,15.2
						c0.4,0.2,0.8,0.4,1.3,0.4c0.7,0,1.3-0.1,2-0.3c0.8-0.1,1.2-1,1-1.7C8.5,13.3,8.3,13,8,12.9c-0.4-0.2-0.7-0.2-1.1-0.1
						c-0.1,0-0.2,0-0.3,0c0.3-0.1,0.6-0.1,0.9-0.2c0.7-0.1,1.4-0.1,2.1-0.2c0.6,0,1.3-0.1,1.9,0c-0.2,0.1-0.3,0.3-0.5,0.5
						c-0.6,0.7-0.6,1.6-0.7,2.4c-0.1,0.7,0,1.3,0,2c0.1,1.3,0.3,2.6,0.4,3.8c0,0.1,0,0.2,0.1,0.4c0.1,0.2,0.2,0.4,0.4,0.6
						c0.3,0.3,0.7,0.4,1.1,0.4c0.4,0,0.8-0.1,1.1-0.4c0.3-0.2,0.5-0.6,0.4-1c-0.2-2.1-0.7-4.1-0.5-6.2c0-0.1,0.1-0.3,0.1-0.4
						c0.3-0.2,0.5-0.3,0.8-0.5c0.2-0.1,0.3-0.3,0.4-0.4c0.1-0.2,0.2-0.4,0.3-0.7c0-0.2,0.1-0.4,0.1-0.6c0-0.1,0-0.2,0-0.2
						c0-0.2-0.1-0.5-0.2-0.7c-0.2-0.4-0.5-0.7-0.8-0.9c-0.3-0.3-0.6-0.4-1.1-0.6c-0.4-0.2-0.9-0.2-1.3-0.2c-0.3,0-0.6,0-0.8,0
						C9.9,9.6,9.1,9.7,8.3,9.8"/>
					<path id="Fill-231" class="st5" d="M12,20.8c-0.4,0.2-0.6,0.5-0.7,0.9c-0.1,0.4,0,0.8,0.2,1.2c0.2,0.4,0.5,0.8,0.7,1.1
						c0.3,0.4,0.5,0.8,0.8,1.2c0.5,0.8,1.1,1.6,1.7,2.4c0.3,0.5,0.7,0.9,1.1,1.4c0.3,0.4,0.7,0.7,1.1,1s0.7,0.7,1.1,1
						c0.5,0.4,1.1,0.8,1.5,1.3c0.1,0.1,0.2,0.2,0.2,0.3c-0.3,0.1-0.7,0.1-1,0.2c-0.6,0.1-1.2,0.2-1.8,0.3c-1.1,0.1-2.2,0.2-3.3,0.2
						c-1.2,0.1-2.4,0.1-3.5,0.2c-0.6,0-1.2,0.1-1.8,0.1C7.5,33.7,6.7,33.8,6,34c-0.6,0.1-1.1,0.3-1.6,0.5c0.1-0.2,0.1-0.4,0.2-0.6
						C5,32.7,5.5,31.6,6,30.6c0.5-1.1,0.9-2.1,1.3-3.2s0.9-2.2,1.3-3.2c0.1-0.3,0.2-0.5,0.4-0.8c0.2-0.4,0.3-0.7,0.1-1.1
						C9,22,8.8,21.7,8.4,21.5c-0.3-0.2-0.8-0.2-1.1-0.1C7,21.5,6.6,21.7,6.4,22c-0.7,1.5-1.4,3.1-2,4.6c-0.6,1.3-1.2,2.7-1.7,4
						s-1.1,2.6-1.6,3.9C1,34.7,0.9,35,0.8,35.3c0,0.1-0.1,0.2-0.1,0.3c-0.1,0.4-0.1,0.7,0,1.1c0,0.2,0.3,0.5,0.4,0.7
						c0.2,0.2,0.5,0.3,0.8,0.4c0.5,0.2,1.1,0.1,1.6,0c0.4-0.1,0.7-0.2,1.1-0.3c0.5-0.1,1-0.3,1.5-0.5c0.4-0.1,0.9-0.2,1.4-0.3
						c2.9-0.3,5.8-0.3,8.8-0.6c0.8-0.1,1.7-0.2,2.5-0.3c0.7-0.1,1.5-0.3,2.2-0.5c0.6-0.2,1.2-0.4,1.7-0.8c0.5-0.4,0.6-1.1,0.6-1.7
						c-0.1-0.5-0.2-1-0.5-1.4c-0.3-0.5-0.6-1-1-1.4s-0.8-0.8-1.2-1.1c-0.5-0.5-1.1-0.9-1.6-1.4c-0.4-0.4-0.8-0.8-1.2-1.2
						c-0.6-0.8-1.2-1.7-1.8-2.6c-0.5-0.9-1.2-1.7-1.7-2.5c-0.3-0.5-0.8-0.7-1.4-0.7C12.5,20.6,12.2,20.6,12,20.8"/>
					<path id="Fill-233" class="st5" d="M13.2,24.8c-0.1,0.1-0.2,0.2-0.4,0.3c-0.3,0.2-0.6,0.4-0.9,0.5c-0.4,0.1-0.7,0.2-1.1,0.3
						c-0.7,0.1-1.4,0-2.1,0c-0.8,0-1.6,0.2-2.3,0.5c-0.8,0.4-1.5,1-1.9,1.7S4.3,29.6,5,30s1.6,0.2,2-0.5c0-0.1,0.1-0.1,0.1-0.2
						c0.1-0.1,0.2-0.2,0.2-0.2C7.5,29,7.6,29,7.7,28.9c0.2-0.1,0.4-0.1,0.6-0.2c0.3,0,0.7,0,1,0s0.7,0,1,0c0.9,0,1.7-0.2,2.5-0.5
						c0.5-0.2,0.9-0.4,1.4-0.7c0.3-0.2,0.7-0.5,1-0.8c0.6-0.5,0.5-1.5,0-2c-0.3-0.3-0.6-0.4-1-0.4C13.8,24.4,13.5,24.6,13.2,24.8"/>
					<path id="Fill-235" class="st5" d="M1.3,1.8c-0.5,0.4-0.6,1-0.7,1.5c0,0.4,0.2,0.7,0.5,1C1,4.4,1,4.5,0.9,4.7
						c-0.2,0.7,0.2,1.4,1,1.6c0.3,0.1,0.6,0.1,0.9,0.1s0.6-0.1,0.9-0.1c0.4,0,0.7-0.2,0.9-0.3s0.5-0.3,0.7-0.4
						c0.4-0.4,0.8-0.8,0.9-1.3c0.2-0.6,0-1.2-0.3-1.7c-0.2-0.4-0.7-0.8-1.1-1C4.2,1.4,3.7,1.3,3,1.3l0,0C2.4,1.3,1.7,1.5,1.3,1.8"/>
					<path id="Fill-237" class="st5" d="M13.5,2.9L13.5,2.9L13.5,2.9 M13,2.8L13,2.8L13,2.8L13,2.8L13,2.8 M12.8,2.4L12.8,2.4
						L12.8,2.4L12.8,2.4 M12.9,0c-0.6,0.1-1.1,0.4-1.6,0.8C11,1,10.8,1.3,10.7,1.7c-0.1,0.2-0.1,0.3-0.1,0.5s0,0.4,0.1,0.6
						c0,0.2,0.1,0.3,0.2,0.5c0,0.3,0.1,0.6,0.3,0.8c0.2,0.3,0.4,0.5,0.7,0.7s0.6,0.2,1,0.3c0.2,0,0.3,0,0.5-0.1
						c0.2,0,0.3-0.1,0.5-0.2c0.3-0.1,0.5-0.3,0.8-0.5c0.2-0.2,0.4-0.5,0.6-0.8c0.2-0.4,0.3-0.7,0.3-1.2c0-0.3,0-0.6-0.1-0.8
						S15.4,1.2,15.3,1c0,0-0.2-0.2-0.3-0.3c-0.2-0.3-0.6-0.5-0.9-0.6C13.8,0,13.6,0,13.4,0C13.3,0,13.1,0,12.9,0"/>
					<path id="Fill-239" class="st5" d="M2.9,4.1L2.9,4.1L2.9,4.1 M2.9,4.1L2.9,4.1L2.9,4.1L2.9,4.1 M2.9,4C2.9,4.1,2.9,4.1,2.9,4
						C2.9,4.1,2.9,4.1,2.9,4 M1.3,2.6C0.9,2.7,0.5,2.9,0.4,3.2C0.3,3.4,0.2,3.6,0.1,3.8S0,4.2,0,4.4c0,0.3,0.1,0.5,0.3,0.8
						s0.5,0.5,0.9,0.6s0.8,0,1.1-0.1C2.6,5.5,2.9,5.3,3,4.9c0-0.2,0-0.4,0-0.5s0-0.1,0-0.2v0.1c0-0.1,0-0.1,0.1-0.2
						c0.1-0.2,0.1-0.4,0-0.7C3,3.2,2.7,2.9,2.4,2.7C2.2,2.6,1.9,2.6,1.7,2.6S1.4,2.6,1.3,2.6"/>
				</g>
			</g>
			<g id="Group-16" transform="translate(804.000000, 171.000000)">
				<circle id="Oval-5" class="st2" cx="23" cy="23" r="23"/>
				<g id="Group-9" transform="translate(11.000000, 7.000000)">
					<path id="Fill-257" class="st3" d="M17.3,30h-0.1c-0.1,0-0.1,0-0.2-0.1c-0.1,0-0.2-0.1-0.2-0.1l0,0l-0.1-0.1l0,0
						c0.1,0,0.1-0.1,0.2-0.2l0.1-0.2l0.1-0.1c0.1-0.1,0.2-0.2,0.3-0.3l0.1-0.1l0,0c0,0,0.1,0,0.1,0.1l0.1,0.1c0,0,0,0.1,0.1,0.1
						c0,0.1,0,0.1,0.1,0.2c0,0.1,0,0.2,0,0.3v0.1c0,0,0,0.1-0.1,0.1l0,0c0,0-0.1,0-0.1,0.1C17.5,30,17.4,30,17.3,30z M13.9,21.2
						L13.9,21.2c0-0.1,0.1-0.2,0.1-0.2c0.1-0.1,0.1-0.3,0.1-0.5c0.1,0,0.2-0.1,0.2-0.1h0.1h0.1l0,0c0.1,0,0.1,0,0.2,0h0.1
						c0,0.1,0,0.1,0.1,0.2c0,0.1,0,0.2,0,0.2c0,0.1,0,0.2-0.1,0.3c0,0.1-0.1,0.1-0.1,0.2c-0.1,0.1-0.2,0.2-0.3,0.2
						c-0.1,0.1-0.2,0.1-0.3,0.2c-0.1,0-0.1,0-0.2,0h-0.1l0,0c0-0.1,0-0.1-0.1-0.2C13.9,21.4,13.9,21.3,13.9,21.2L13.9,21.2
						L13.9,21.2z M2.9,21.5L2.9,21.5c-0.2,0-0.4-0.1-0.5-0.1l0,0l-0.1-0.1l-0.1-0.1C2,21,2,20.9,2,20.8s0-0.1,0-0.2
						c0.2-0.1,0.5-0.3,0.7-0.4c0.1,0,0.2-0.1,0.4-0.1c0.1,0,0.1,0,0.2,0c0.1,0,0.1,0,0.2,0h0.1c0.1,0,0.1,0.1,0.1,0.1l0,0
						c0,0.1,0.1,0.2,0.1,0.3l0,0c0,0.1,0,0.2-0.1,0.3c-0.1,0.1-0.1,0.2-0.2,0.3l0,0c-0.1,0-0.1,0.1-0.2,0.1c-0.1,0-0.1,0-0.2,0
						L2.9,21.5L2.9,21.5z M19.8,13.1L19.8,13.1c-0.1,0-0.2,0-0.3-0.1h-0.1c0-0.1-0.1-0.3-0.2-0.4c0.1-0.1,0.1-0.1,0.2-0.2
						c0.1-0.1,0.3-0.2,0.5-0.3c0.1,0,0.2-0.1,0.3-0.1h0.1c0.1,0,0.1,0,0.2,0c0,0,0.1,0,0.1,0.1l0,0c0,0,0,0,0,0.1v0.1l0,0l0,0
						c0,0.1,0,0.1-0.1,0.1c-0.1,0.1-0.2,0.2-0.3,0.3C20.1,12.9,20,13,19.8,13.1L19.8,13.1L19.8,13.1z M10.7,9.6
						c-0.1-0.1-0.2-0.2-0.3-0.2s-0.2-0.1-0.3-0.1l0.1-0.1l0.1-0.1h0.1C10.5,9,10.6,9,10.7,8.9c0.1,0,0.1,0,0.2-0.1H11
						c0.1,0,0.1,0,0.2,0.1h0.1V9c0,0.1,0,0.2-0.1,0.2c0,0.1-0.1,0.1-0.1,0.2L11,9.5C10.8,9.5,10.8,9.6,10.7,9.6z M6,2.4L6,2.4
						c-0.2,0-0.2,0-0.3,0l0.1-0.1V2.2C5.8,2.1,5.9,2.1,6,2c0,0,0.1-0.1,0.2-0.1h0.1l0,0c0,0,0,0,0.1,0s0.1,0,0.2,0l0,0l0,0L6.7,2
						v0.1L6.6,2.2c-0.1,0-0.1,0.1-0.2,0.1s-0.1,0-0.2,0C6,2.4,6,2.4,6,2.4z M6.2,0C5.9,0,5.6,0,5.4,0.1c-1,0.3-1.8,1.2-1.9,2.2
						c0,0.2,0,0.3,0,0.5s0.1,0.5,0.3,0.6h0.1C4,3.6,4.2,3.8,4.5,3.9C4.7,4,5,4.1,5.3,4.2c0.2,0,0.4,0.1,0.6,0.1c0.1,0,0.1,0,0.2,0
						c0.3,0.5,0.7,1.1,1.1,1.8s0.7,1.3,1,2.1l0.1,0.2c0,0.1-0.1,0.2-0.1,0.3C8.1,8.9,8.1,9.1,8.1,9.4c0,0,0,0,0,0.1
						c0,0.2,0,0.4,0.1,0.6c0,0.2,0.1,0.3,0.2,0.5l-0.2,0.2L8,11.1c-0.2,0.3-0.3,0.5-0.5,0.8c-0.4,0.6-0.9,1.4-1.3,2.1
						c-0.8,1.4-1.8,2.7-2.6,4l-0.2,0.4H3.3c-0.1,0-0.1,0-0.2,0c-0.2,0-0.4,0-0.5,0.1c-0.4,0.1-0.7,0.2-1.1,0.3
						c-0.3,0-0.5,0.1-0.7,0.3c-0.1,0.1-0.3,0.3-0.4,0.4s-0.2,0.2-0.2,0.4c0,0.1-0.1,0.2-0.1,0.3C0,20.2,0,20.5,0,20.7s0,0.5,0.1,0.7
						v0.1c0.1,0.3,0.2,0.6,0.4,0.8c0.2,0.2,0.3,0.4,0.5,0.5c0.2,0.2,0.4,0.3,0.7,0.4c0.1,0,0.2,0.1,0.3,0.1c0.2,0.1,0.5,0.1,0.7,0.1
						c0.1,0,0.1,0,0.2,0c0.4,0,0.7-0.1,1.1-0.2c0.2-0.1,0.4-0.2,0.6-0.3C4.7,23,4.9,23,5.1,23c0,0,0,0,0.1,0
						c1.9-0.2,3.7-0.4,5.5-0.6c0.4,0,0.7-0.1,1.1-0.1h0.1h0.2c0.1,0.3,0.2,0.5,0.4,0.7c0.3,0.3,0.6,0.5,0.9,0.6c0.1,0,0.1,0,0.2,0.1
						c0.4,0.8,0.7,1.7,0.9,2.5c0.1,0.4,0.2,0.7,0.3,1.1c0,0.1,0.1,0.2,0.1,0.3l0,0c0,0.1,0.1,0.3,0.1,0.4c-0.2,0.2-0.4,0.4-0.5,0.7
						c-0.3,0.7-0.2,1.4,0.2,2.1c0.4,0.6,1.1,1.1,1.9,1.2c0.2,0,0.3,0.1,0.5,0.1s0.4,0,0.7-0.1c0.2,0,0.4-0.1,0.6-0.2
						s0.4-0.2,0.6-0.4c0.1-0.1,0.2-0.2,0.3-0.3l0,0l0.1-0.1c0.1-0.1,0.1-0.3,0.2-0.4v-0.1c0.1-0.3,0.2-0.7,0.2-1.1
						c0-0.7-0.3-1.4-0.9-1.8c-0.3-0.2-0.6-0.4-0.9-0.5C17.9,27,17.6,27,17.5,27c-0.2,0-0.4,0-0.5,0.1l-0.1-0.2
						c-0.1-0.4-0.3-0.8-0.4-1.3c-0.3-0.7-0.6-1.5-0.9-2.4c0.5-0.3,0.9-0.7,1.1-1.1c0.1-0.3,0.2-0.6,0.3-0.9c0-0.2,0-0.3,0-0.5
						c0-0.1,0-0.3,0-0.4v-0.1c0-0.2-0.1-0.4-0.2-0.5c-0.1-0.2-0.2-0.3-0.3-0.4l0,0l0.4-0.6l0.6-0.9c0.2-0.3,0.4-0.7,0.6-1
						c0.3-0.5,0.5-0.9,0.7-1.4l0,0l0.1-0.3c0.2,0.1,0.5,0.1,0.8,0.2h0.1c0.3,0,0.6-0.1,1-0.2c0.3-0.1,0.5-0.2,0.8-0.5
						c0.3-0.2,0.5-0.4,0.7-0.7c0.1-0.1,0.2-0.3,0.2-0.5c0.1-0.2,0.1-0.4,0.1-0.6c0-0.4-0.1-0.7-0.2-1c-0.2-0.5-0.7-0.9-1.4-1.1
						c-0.3-0.1-0.6-0.1-0.9-0.1H20c-0.4,0-0.7,0.1-1.2,0.3c-0.3,0.1-0.6,0.3-0.8,0.5c-0.3,0.2-0.5,0.5-0.7,0.8s-0.3,0.6-0.4,0.9
						c-0.1,0.3,0,0.6,0.1,1v0.1c-0.1,0.2-0.2,0.5-0.4,0.7c-0.2,0.4-0.4,0.7-0.5,1.1c-0.4,0.7-0.8,1.4-1.3,2.1l-0.1,0.2l-0.3,0.4
						c0,0.1-0.1,0.2-0.1,0.2c-0.4,0-0.8,0.2-1.2,0.3c-0.3,0.1-0.6,0.3-0.8,0.5s-0.4,0.4-0.6,0.6l0.2-0.3c-0.1,0.1-0.1,0.2-0.1,0.3
						c-0.2,0-0.4,0-0.6,0c-0.5,0-1,0.1-1.5,0.2l-0.5,0.1c-1.3,0.2-2.4,0.3-3.4,0.4c0-0.2,0-0.3,0-0.5c0-0.4-0.2-0.8-0.4-1.2
						c-0.1-0.1-0.1-0.2-0.2-0.2l0.4-0.6c0.8-1.2,1.7-2.4,2.4-3.7c0.3-0.5,0.7-1.1,1-1.6L9.2,13l0.2-0.3l0.2-0.2l0.2-0.3l0.5-0.7
						c0.1,0,0.2,0,0.2,0c0.4,0,0.9-0.1,1.3-0.3c0.5-0.3,0.9-0.7,1.2-1.4c0.2-0.6,0.3-1.1,0.1-1.6c-0.1-0.3-0.3-0.5-0.5-0.7
						C12.3,7.3,12,7.1,11.7,7c-0.2-0.1-0.4-0.1-0.7-0.1h-0.1c-0.2,0-0.5,0.1-0.8,0.2C9.8,6.8,9.7,6.5,9.6,6.2C9.5,6,9.3,5.7,9.2,5.5
						V5.4L9,5.2c-0.2-0.3-0.4-0.7-0.5-1L8.4,4.1L8.3,3.9l0,0C8.2,3.7,8.1,3.5,8,3.4C8.1,3.3,8.2,3.1,8.3,3c0.3-0.5,0.3-1.1,0.1-1.6
						C8.3,1.1,8.1,0.9,7.9,0.7C7.7,0.4,7.4,0.3,7.1,0.2C6.8,0.1,6.5,0,6.2,0z"/>
				</g>
			</g>
			<g id="Group-2" transform="translate(217.000000, 36.000000)">
				<circle id="Oval-4" class="st6" cx="39.5" cy="39.5" r="39.5"/>
				<g id="Group-12" transform="translate(16.928571, 12.226190)">
					<path id="Fill-197" class="st7" d="M6.4,46.1C6.4,46.1,6.5,46.1,6.4,46.1C6.5,46.1,6.4,46.1,6.4,46.1 M13.1,42.2
						c0,0.1,0,0.2,0,0.2S13.1,42.3,13.1,42.2 M13.2,41.8c0,0.1,0,0.3,0.1,0.4C13.2,42.1,13.2,42,13.2,41.8 M13.2,41.8
						c0.1,0.1,0.1,0.2,0.1,0.3C13.3,41.9,13.2,41.9,13.2,41.8 M12.9,41.4c0.1,0.1,0.1,0.1,0.2,0.2C13,41.5,13,41.4,12.9,41.4
						 M10.9,40.9c0.5,0.1,0.9,0.2,1.3,0.3c0.3,0.1,0.6,0.3,0.8,0.4l0,0l0,0c0,0.1,0,0.2,0,0.2c-0.1,0.3-0.1,0.5-0.2,0.7
						c-0.2,0.3-0.4,0.6-0.6,0.9c-0.5,0.5-1,0.9-1.5,1.3c-0.6,0.4-1.2,0.8-1.9,1.1C8.4,45.9,8,46,7.6,46.1c-0.2,0-0.4,0-0.6,0
						S6.6,46,6.4,46c0,0-0.1,0-0.2-0.1l0,0C6.1,45.8,6,45.7,6,45.6v-0.1c0-0.2,0-0.3,0-0.5c0-0.3,0.1-0.6,0.2-1
						c0.4-0.7,0.8-1.4,1.3-2c0.3-0.3,0.6-0.6,1-0.9l0,0c0.4-0.1,0.8-0.2,1.2-0.3C10.1,40.9,10.5,40.9,10.9,40.9 M7.5,35.6
						C7.4,35.6,7.4,35.6,7.5,35.6c-0.6,0.2-1.2,0.3-1.7,0.6C4,37,2.4,38.3,0.9,39.5c-1,0.9-1.1,2.3-0.4,3.4
						c-0.5,1.4-0.6,2.9-0.1,4.4c0.4,1.3,1.4,2.4,2.6,3.1c0.6,0.4,1.3,0.7,2,0.9s1.5,0.3,2.2,0.4c0.8,0.1,1.6-0.1,2.3-0.2
						c0.6-0.1,1.1-0.3,1.7-0.5c0.7-0.3,1.3-0.5,1.9-0.9c0.6-0.3,1.2-0.8,1.8-1.2c0.5-0.3,0.9-0.7,1.4-1.1c0.6-0.5,1-1.1,1.5-1.7
						c0.5-0.6,0.7-1.3,1-2s0.4-1.5,0.4-2.2c0.1-0.7-0.1-1.4-0.3-2c-0.2-0.7-0.7-1.4-1.2-1.9c-1-1-2.2-1.6-3.6-2.1s-3-0.7-4.5-0.6
						c-0.2,0-0.4-0.1-0.6-0.1C8.5,35.3,8,35.4,7.5,35.6"/>
					<path id="Fill-199" class="st7" d="M11.1,13.9C11.1,13.9,11.1,13.8,11.1,13.9C11.1,13.8,11.1,13.8,11.1,13.9
						C11.1,13.8,11.1,13.8,11.1,13.9 M18.7,24.1c0,0.1,0,0.2,0,0.3C18.7,24.3,18.7,24.2,18.7,24.1 M18.6,23.6c0,0.1,0,0.1,0,0.2
						C18.6,23.8,18.6,23.7,18.6,23.6 M10.9,12.5C10.9,12.6,10.9,12.6,10.9,12.5C10.9,12.6,10.9,12.6,10.9,12.5 M33.2,1.3
						c-3.3,1.2-6.8,2.1-10.1,3.3c-1.7,0.6-3.4,1.2-5,1.8c-1.4,0.5-2.8,1-4.1,1.5c-0.5,0.2-0.9,0.4-1.3,0.7C12.3,8.8,12,9,11.8,9.3
						c-0.4,0.3-0.6,0.7-0.8,1.2c-0.3,0.6-0.2,1.2-0.1,1.9c0.1,0.5,0.1,1,0.2,1.5v-0.1v0.1V14v-0.1c0.6,3.8,1.1,7.6,1.7,11.4
						c0.7,4,1.3,8,2,12c0.2,1.6,0.4,3.2,0.6,4.8c0.1,0.7,0.3,1.3,0.9,1.9c0.5,0.5,1.3,0.8,2.1,0.8c0.8,0,1.5-0.3,2.1-0.8
						c0.5-0.5,0.9-1.2,0.9-1.9C20.8,36,19.7,30,18.8,24c-0.3-2.1-0.6-4.2-0.9-6.3c-0.2-1.7-0.5-3.3-0.8-5c1.5-0.5,3-1,4.5-1.5
						c1.4-0.5,2.8-0.9,4.2-1.4c3.3-1.1,6.7-2,10-3.3c0.5-0.3,0.8-0.6,1.1-1c0.4-0.7,0.5-1.4,0.3-2.2C37,2.6,36.5,2,35.8,1.6
						c-0.5-0.2-1.1-0.4-1.6-0.4C33.7,1.2,33.5,1.2,33.2,1.3"/>
					<path id="Fill-201" class="st7" d="M36.8,9.5c-1.6,0.5-3.3,0.9-4.9,1.4s-3.2,1.2-4.8,1.8c-3.7,1.5-7.4,3-11.2,4.5
						c-0.7,0.3-1.2,1-1.4,1.6c-0.2,0.7-0.1,1.5,0.3,2.1c0.4,0.6,1.1,1.1,1.9,1.3c0.9,0.2,1.6,0,2.4-0.3c4.1-1.7,8.3-3.4,12.4-5
						c1.1-0.4,2.1-0.7,3.2-1.1c1.3-0.4,2.5-0.7,3.8-1.1c0.8-0.3,1.4-0.6,1.9-1.3c0.4-0.6,0.5-1.4,0.3-2.1c-0.4-1.1-1.7-2-3-2
						C37.4,9.4,37.1,9.4,36.8,9.5"/>
					<path id="Fill-203" class="st7" d="M36.7,38.8L36.7,38.8C36.8,38.9,36.7,38.9,36.7,38.8 M39,34.7c0.1,0,0.2,0.1,0.3,0.1
						c0.2,0.1,0.4,0.2,0.5,0.3c0.4,0.3,0.7,0.5,1,0.8c0.2,0.2,0.4,0.4,0.6,0.5c-0.1,0.2-0.3,0.4-0.4,0.6c-0.4,0.4-0.8,0.7-1.2,1
						c-0.3,0.2-0.6,0.3-0.9,0.5c-0.3,0.1-0.5,0.1-0.8,0.2c-0.3,0-0.6,0-0.9,0c-0.2,0-0.4-0.1-0.6-0.2c-0.1,0-0.1-0.1-0.2-0.1v-0.1
						c0-0.3,0-0.6,0-0.9c0.1-0.5,0.2-0.9,0.4-1.3c0.2-0.3,0.3-0.6,0.6-0.8c0.2-0.2,0.3-0.3,0.5-0.5c0.1-0.1,0.2-0.1,0.3-0.2
						c0.1,0,0.2,0,0.3-0.1C38.7,34.7,38.8,34.7,39,34.7 M35.4,0.8c-0.5,0.5-1,1.3-0.9,2c0.5,3.3,0.9,6.5,1.6,9.8
						c0.5,2.6,1,5.1,1.6,7.7s1.1,5.2,1.7,7.7c0.1,0.4,0.2,0.8,0.3,1.1c-1.9-0.2-3.8,0.2-5.3,1.1c-2,1.3-3.3,3.2-4,5.3
						c-0.3,0.9-0.4,2-0.4,3c0,1.1,0.4,2.1,1,3.1c0.3,0.5,0.7,0.9,1.1,1.3c0.4,0.3,0.9,0.7,1.4,0.9c1.1,0.6,2.4,0.8,3.7,0.9
						c2.1,0.1,4.2-0.4,6-1.4c1.9-1.1,3.3-2.7,4.4-4.4c0.7-1.1,0.5-2.5-0.4-3.4c0.1-0.2,0.1-0.4,0.1-0.6c0-0.7-0.2-1.5-0.4-2.2
						c-0.1-0.5-0.2-1.1-0.3-1.7c-0.3-1.2-0.5-2.5-0.8-3.7c-0.6-2.5-1.2-5.1-1.7-7.6c-0.5-2.4-1.1-4.8-1.6-7.2
						c-0.6-2.7-1.1-5.4-1.5-8.2c-0.1-0.5-0.1-0.9-0.2-1.4c0-0.2-0.1-0.5-0.1-0.7c-0.1-0.5-0.4-0.9-0.8-1.2c-0.7-0.7-1.5-1-2.3-1
						C36.8,0,36,0.3,35.4,0.8"/>
				</g>
			</g>
			<g id="Group-17" transform="translate(951.000000, 185.000000)">
				<ellipse id="Oval-6" class="st8" cx="46" cy="45.5" rx="46" ry="45.5"/>
				<g id="Group-11" transform="translate(17.000000, 22.000000)">
					<path id="Fill-205" class="st9" d="M1.9,0.1c-0.6,0.2-1.2,0.5-1.5,1C0,1.6-0.1,2.3,0.1,2.9c1.1,2.6,2.2,5.3,3.2,8
						c0.9,2.2,1.8,4.5,2.7,6.7c0.9,2.4,1.7,4.7,2.6,7.1c0.8,2.4,1.6,4.9,2.5,7.3c1,2.6,2,5.2,2.9,7.8c0.4,1.2,0.8,2.3,1.2,3.5
						c0.2,0.5,0.4,1.1,0.5,1.6c0.2,0.5,0.4,1.1,0.6,1.6c0,0.4,0.1,0.8,0.4,1.2c0.3,0.5,0.9,0.9,1.5,1.1c1.3,0.3,2.9-0.4,3.2-1.6
						c0-0.1,0-0.1,0-0.2c0.1-0.4,0.1-0.8,0-1.2c0-0.3-0.1-0.5-0.2-0.7c-0.1-0.3-0.2-0.5-0.2-0.8c-0.2-0.6-0.4-1.2-0.6-1.8
						c-0.3-1.1-0.7-2.3-1.1-3.4c-0.8-2.3-1.7-4.6-2.5-6.9c-1.8-4.9-3.5-9.9-5.4-14.8c-0.9-2.3-1.9-4.6-2.8-6.9c-1.2-3-2.4-6-3.6-8.8
						c-0.2-0.6-0.5-1-1.2-1.3C3.4,0.1,3,0,2.5,0C2.3,0,2.1,0,1.9,0.1"/>
					<path id="Fill-207" class="st9" d="M58.9,26c-2.1,1.2-4,2.5-6.1,3.7c-1,0.6-2.1,1.1-3.2,1.6c-1,0.5-2,1.1-3.1,1.7
						c-2.2,1.1-4.5,2.1-6.7,3.3c-1.1,0.6-2.2,1.2-3.4,1.7c-0.9,0.4-1.8,0.8-2.8,1.2c-1.1,0.4-2.2,0.7-3.3,1.1
						c-1.4,0.5-2.8,1-4.2,1.6c0.1,0,0.1,0,0.2-0.1c-2.1,0.8-4.3,1.6-6.4,2.5c-0.6,0.2-1.1,0.9-1.2,1.4c-0.2,0.6-0.1,1.3,0.3,1.9
						c0.4,0.5,0.9,0.9,1.6,1.1c0.2,0,0.5,0.1,0.7,0.1c0.5,0,0.9-0.1,1.4-0.3c0.9-0.4,1.8-0.7,2.7-1.1c2.6-0.9,5.1-1.9,7.7-2.7
						c2.8-0.8,5.4-2,8-3.3c1.3-0.7,2.5-1.3,3.8-2c1.2-0.6,2.5-1.2,3.7-1.8c1.3-0.6,2.5-1.3,3.8-2c1.2-0.6,2.4-1.2,3.6-1.9
						c2-1.1,3.7-2.4,5.6-3.5c0.6-0.4,1-0.8,1.2-1.4s0.1-1.3-0.3-1.9c-0.5-0.7-1.4-1.2-2.3-1.2C59.8,25.7,59.3,25.8,58.9,26"/>
					<path id="Fill-209" class="st9" d="M3,1.2C2.7,1.7,2.6,2.4,2.8,3S3.4,4,4,4.4c1.2,0.7,2.3,1.4,3.6,2C8.7,7,9.8,7.5,10.9,8
						c1.2,0.5,2.5,1.1,3.7,1.6s2.4,1,3.6,1.6c1.2,0.6,2.5,1.2,3.7,1.8s2.5,1.2,3.7,1.7c2.3,1.1,4.6,2.3,6.9,3.4
						c3.9,1.8,7.8,3.5,11.8,5.1c2.3,0.9,4.6,1.7,6.9,2.5c2.4,0.8,4.7,1.7,7,2.5c0.6,0.2,1.5,0.1,2-0.2c0.6-0.3,1-0.8,1.2-1.4
						s0.1-1.2-0.3-1.8c-0.4-0.6-0.9-0.8-1.5-1.1c-3.5-1.3-7-2.5-10.5-3.7c-2.4-0.9-4.7-1.9-7-2.9c-2.4-1.1-4.9-2.1-7.3-3.3
						c-2.5-1.2-4.9-2.5-7.4-3.6c-1.2-0.5-2.4-1.1-3.5-1.7c-1.2-0.6-2.3-1.2-3.5-1.7c-1.1-0.5-2.2-0.9-3.3-1.4
						c-1.2-0.5-2.4-1.1-3.6-1.6s-2.3-1-3.4-1.6C9,1.6,7.8,1,6.7,0.3C6.3,0.1,5.8,0,5.4,0C4.5,0,3.5,0.4,3,1.2"/>
					<path id="Fill-211" class="st9" d="M27.9,30.4c-0.1-0.1-0.1-0.3-0.2-0.4C27.8,30.1,27.8,30.3,27.9,30.4 M21.8,29.5
						c0.1,0.1,0.1,0.2,0.2,0.3C21.9,29.8,21.8,29.7,21.8,29.5 M20,20.9c-0.6,0.3-1,0.8-1.2,1.4c0,0.2-0.1,0.4-0.1,0.6
						c0,0.4,0.1,0.8,0.4,1.2c0.9,2,1.9,3.9,2.8,5.9c0.5,1.1,1,2.2,1.6,3.3c0.7,1.3,1.7,2.8,3.6,2.7c1.2-0.1,2.1-0.6,3.1-1.1
						c0.6-0.3,1.3-0.6,1.9-0.9c1.3-0.5,2.6-1.1,3.9-1.6c0.4-0.2,0.7-0.5,1-0.9c0.4-0.6,0.5-1.3,0.3-1.9s-0.7-1.1-1.3-1.5
						c-0.6-0.3-1.5-0.5-2.1-0.2c-1.4,0.5-2.8,1.2-4.2,1.7c-0.6,0.3-1.3,0.5-1.9,0.8l0,0l0,0l0,0c-1.4-2.9-2.8-5.8-4.3-8.7
						c-0.3-0.5-1-0.9-1.6-1.1c-0.2-0.1-0.5-0.1-0.7-0.1C20.9,20.5,20.5,20.7,20,20.9"/>
					<path id="Fill-213" class="st9" d="M22,20.6c-0.6,0.2-1.2,0.6-1.5,1.1s-0.4,1.2-0.3,1.8c0.2,0.5,0.6,1.2,1.2,1.4
						c0.8,0.3,1.7,0.7,2.5,1c1.5,0.6,2.9,1.3,4.3,2.1c1.4,0.8,2.7,1.7,4.1,2.5c1.2,0.7,2.9,0.2,3.6-0.9c0.3-0.5,0.4-1.2,0.3-1.8
						c-0.2-0.6-0.6-1.1-1.2-1.4c-1.6-1-3.1-2-4.7-2.9c-0.8-0.4-1.7-0.9-2.5-1.2c-1-0.4-1.9-0.8-2.9-1.1c-0.2-0.1-0.5-0.2-0.7-0.3
						c-0.5-0.2-0.9-0.3-1.3-0.3C22.4,20.5,22.2,20.6,22,20.6"/>
					<path id="Fill-215" class="st9" d="M14.4,8.4c-0.5,0.6-1,1.1-1.6,1.7c-0.5,0.5-0.8,1-0.8,1.7c0,0.6,0.3,1.2,0.8,1.7
						c0.9,0.9,2.7,1,3.6,0c0.5-0.6,1-1.1,1.6-1.7c0.9-1,1-2.4,0-3.4c-0.5-0.5-1.2-0.7-1.9-0.7C15.5,7.7,14.8,7.9,14.4,8.4"/>
					<path id="Fill-217" class="st9" d="M19.3,10.9c-0.4,0.3-0.7,0.7-1.1,1c-0.5,0.4-0.8,0.9-0.8,1.5c0,0.5,0.3,1.1,0.8,1.5
						c1,0.8,2.9,0.9,3.9,0c0.4-0.3,0.7-0.6,1.1-1c0.5-0.4,0.8-0.9,0.8-1.5s-0.3-1.1-0.8-1.5s-1.3-0.6-2.1-0.6
						C20.5,10.3,19.8,10.5,19.3,10.9"/>
					<path id="Fill-219" class="st9" d="M24.4,14c-0.4,0.6-0.9,1.2-1.3,1.8c-0.8,1.1-0.3,2.6,1,3.2c1.3,0.7,2.9,0.2,3.7-0.8
						c0.4-0.6,0.9-1.2,1.3-1.8c0.8-1.1,0.3-2.5-1-3.2c-0.4-0.2-0.9-0.3-1.3-0.3C25.9,12.8,25,13.3,24.4,14"/>
					<path id="Fill-221" class="st9" d="M29.5,18c0,1.4,1.5,2.6,3.3,2.6s3.3-1.2,3.3-2.6s-1.5-2.6-3.3-2.6S29.5,16.6,29.5,18"/>
					<path id="Fill-223" class="st9" d="M38.4,19.3c-0.6,0.1-1.2,0.5-1.5,1c-0.1,0.3-0.3,0.5-0.4,0.8c-0.3,0.6-0.4,1.1-0.2,1.7
						c0.2,0.5,0.6,1,1.1,1.3c0.6,0.3,1.3,0.4,1.9,0.2c0.6-0.1,1.2-0.5,1.5-1c0.1-0.3,0.3-0.5,0.4-0.8c0.3-0.6,0.4-1.1,0.2-1.7
						c-0.2-0.5-0.6-1-1.1-1.3c-0.4-0.2-0.8-0.3-1.3-0.3C38.8,19.3,38.6,19.3,38.4,19.3"/>
					<path id="Fill-225" class="st9" d="M42.9,24.4c0,1.4,1.5,2.6,3.3,2.6s3.3-1.2,3.3-2.6s-1.5-2.6-3.3-2.6S42.9,23,42.9,24.4"/>
				</g>
			</g>
			<g id="Group-21" transform="translate(850.000000, 0.000000)">
				<g id="Group-8">
					<circle id="Oval-7" class="st4" cx="63.5" cy="63.5" r="63.5"/>
					<path id="Fill-282" class="st5" d="M59.1,94c-0.4,0.1-0.8,0.2-1.3,0.3c-0.5,0-0.9,0-1.4,0s-1,0-1.5,0c-0.7,0.1-1.4,0.2-2.1,0.3
						c-0.9,0.2-1.8,0.7-2.6,1.3c-0.6,0.5-1.1,1-1.3,1.8s-0.1,1.6,0.3,2.3c0.7,1.3,2.6,2,3.8,1.1c0.3-0.2,0.5-0.4,0.8-0.6
						c0.2-0.1,0.4-0.1,0.6-0.2c0.7-0.1,1.4,0,2.2,0c0.9,0,1.7-0.1,2.5-0.2c0.3,0,0.5-0.1,0.8-0.2H60c1.6,0.3,3.3,0.7,4.9,0.2
						c1.5-0.5,2.4-2.1,2-3.7c-0.4-1.5-2-2.7-3.5-2.1c-0.1,0-0.1,0-0.2,0.1c-0.4,0-0.8,0-1.1-0.1c-0.1,0-0.3-0.1-0.4-0.1
						c-0.4-0.1-0.7-0.1-1.1-0.2c-0.2,0-0.4,0-0.6,0C59.7,94,59.4,94,59.1,94"/>
					<path id="Fill-284" class="st5" d="M64.2,95.5c-0.4,1.1,0.5,2.2,1.9,2.5c0.7,0.2,1.4,0.3,2.2,0.5c1.4,0.3,3-0.4,3.3-1.4
						c0.4-1.1-0.5-2.2-1.9-2.5c-0.7-0.2-1.4-0.3-2.2-0.5C67.3,94,67,94,66.8,94C65.6,94,64.5,94.6,64.2,95.5"/>
					<path id="Fill-286" class="st5" d="M74.8,63.7c0,0-0.1,0-0.2,0H74.8z M75.9,63.5c-0.3,0.1-0.6,0.1-0.9,0.2
						c-0.6,0.1-1.3,0.1-1.9,0.2c-0.4,0.1-0.8,0.1-1.3,0.3c-0.5,0.1-1.1,0.4-1.6,0.6c-0.6,0.3-1.2,0.5-1.8,0.8
						c-1.1,0.5-2,1.1-2.9,1.8c-1.1,0.8-2.1,1.7-3,2.7c-1,1-1.8,2.2-2.6,3.4c-0.7,1.2-1.3,2.5-1.8,3.8c-0.4,1.2-0.6,2.4-0.8,3.6
						c-0.2,1.4-0.5,2.8-0.5,4.3c-0.1,1.3,0,2.6-0.1,3.9c-0.1,1.8-0.2,3.6-0.3,5.5c-0.1,1.4,1.3,2.5,2.6,2.5c0.7,0,1.4-0.3,1.9-0.7
						c0.5-0.5,0.7-1.1,0.8-1.8c0.1-2,0.3-4,0.4-6.1c0.1-1.8,0-3.6,0.3-5.3c0.3-1.9,0.7-3.8,1.4-5.6c0.6-1.1,1.2-2.2,2-3.2
						c0.6-0.7,1.2-1.3,1.8-1.9c0.6-0.6,1.3-1.1,2-1.7c0.1-0.1,0.2-0.2,0.3-0.2c0.5-0.3,1-0.6,1.5-0.8c0.4-0.2,0.8-0.4,1.2-0.5
						c0.8-0.3,1.5-0.5,2.3-0.6s1.6-0.1,2.4-0.4c0.7-0.2,1.2-0.6,1.6-1.2s0.5-1.3,0.3-1.9S78.6,64,78,63.7c-0.4-0.2-0.9-0.4-1.4-0.4
						C76.3,63.4,76.1,63.4,75.9,63.5z"/>
					<path id="Fill-288" class="st5" d="M91.9,64.5c-0.1,0-0.2,0-0.3,0.1C91.7,64.6,91.8,64.6,91.9,64.5 M94.4,55.7
						c1.1-0.1,2.1-0.3,3.2-0.3c0.7,0,1.3,0.2,1.9,0.3c1.3,0.4,2.6,0.9,3.8,1.5c-0.1,0.1-0.1,0.2-0.2,0.4c-0.5,0.7-1.1,1.4-1.7,2
						c-1.3,1.2-2.9,2.3-4.4,3.2c-1.5,0.8-3.1,1.2-4.7,1.6c-1.5,0.3-3,0.5-4.5,0.7c-0.5,0.1-1,0.1-1.5,0.1c1-0.5,2.1-0.9,3.1-1.2
						c1.4-0.3,2.9-0.5,4.4-0.7c1.6-0.2,2.7-1.6,2.6-3.2c-0.2-1.5-1.6-2.8-3.2-2.5c-2.1,0.3-4.3,0.7-6.4,1.3c-0.1,0-0.2,0.1-0.4,0.1
						c0.6-0.5,1.3-1,2-1.4c1.2-0.6,2.3-1.1,3.6-1.5C92.9,56,93.6,55.8,94.4,55.7 M95.8,49.8c-1,0.1-2,0.3-3,0.4
						c-0.8,0.1-1.6,0.3-2.4,0.5c-1.4,0.4-2.6,0.9-3.9,1.5c-1,0.5-2,1.1-3,1.8c-1.1,0.8-2.2,1.8-3.1,2.8c-0.8,0.8-1.4,1.7-1.9,2.6
						c-0.8,1.2-1.4,2.5-2,3.8c-0.5,1.2-0.2,2.5,0.8,3.3c-0.1,0.4-0.1,0.8,0,1.2c0.1,0.8,0.5,1.4,1.1,1.9c0.7,0.7,2,0.9,3,1.1
						c1.9,0.4,3.9,0.3,5.9,0.2c1.5-0.1,3-0.2,4.4-0.5c1.8-0.3,3.5-0.8,5.2-1.3c2.3-0.7,4.2-2,6.2-3.3c1.4-0.9,2.6-2.1,3.7-3.4
						c1.3-1.4,2.3-3.1,2.8-5c0.3-1.2,0.3-2.5-0.5-3.5c-0.5-0.6-1-0.8-1.6-1.2c-0.7-0.4-1.5-0.8-2.2-1.1c-0.8-0.4-1.7-0.7-2.5-1
						c-0.9-0.3-1.7-0.6-2.6-0.8c-0.7-0.2-1.5-0.2-2.2-0.2C97,49.7,96.4,49.7,95.8,49.8"/>
					<path id="Fill-290" class="st5" d="M53.8,44.2c0,0.1,0.1,0.1,0.1,0.2C53.9,44.4,53.9,44.3,53.8,44.2 M35.9,43.2
						c0.1,0,0.1,0,0.2,0C36,43.3,35.9,43.3,35.9,43.2 M28.3,38.3l0.1,0.1C28.4,38.4,28.3,38.4,28.3,38.3 M27.3,32.3
						c1.3-0.1,2.6-0.2,3.9-0.1c1.7,0.1,3.3,0.3,5,0.7c1.6,0.5,3.1,1.1,4.6,1.9c1.2,0.7,2.2,1.6,3.2,2.5c0.5,0.6,1,1.1,1.5,1.7
						c-0.4-0.3-0.8-0.5-1.3-0.8c-0.4-0.2-0.9-0.4-1.4-0.6c-0.4-0.2-0.9-0.4-1.4-0.5c-1.1-0.3-2.2-0.6-3.4-0.9c-0.5-0.1-1,0-1.4,0.2
						c-0.7,0.3-1.2,0.8-1.5,1.4c-0.3,0.6-0.3,1.4,0,2c0.2,0.6,0.8,1.2,1.4,1.4c0.8,0.3,1.7,0.5,2.6,0.7c1,0.3,1.9,0.7,2.8,1.2
						c0.7,0.4,1.3,0.9,1.8,1.4h-0.2c-1-0.1-2.1-0.1-3.1-0.3c-1.4-0.2-2.7-0.5-4-0.9s-2.5-0.9-3.7-1.6c-1.5-0.9-2.8-1.9-4.1-3.1
						c-0.7-0.8-1.4-1.6-1.9-2.4c-0.4-0.7-0.6-1.4-0.9-2.1c-0.1-0.6-0.2-1.1-0.2-1.7C26.1,32.4,26.7,32.3,27.3,32.3 M28.2,26.8
						c-1.4,0.1-2.8,0.2-4.1,0.3c-0.6,0.1-1.2,0.1-1.7,0.3c-0.9,0.4-1.7,1.1-2,2c-0.4,1-0.3,2.1-0.3,3.2c0.1,1.2,0.3,2.3,0.6,3.5
						c0.2,0.8,0.6,1.6,1,2.4c0.4,0.8,0.9,1.6,1.5,2.3s1.2,1.4,1.9,2c0.7,0.7,1.5,1.3,2.3,2c1.5,1.1,3.1,2.1,4.8,2.8
						c1.5,0.7,3.1,1.1,4.6,1.4c1.1,0.2,2.1,0.5,3.2,0.6c1.2,0.1,2.5,0.2,3.7,0.2c1.1,0,2.2,0,3.2-0.1c0.3,0,0.6,0,0.8-0.1
						c0.4,0,0.7-0.1,1-0.3c0.6-0.3,1-0.6,1.3-1.1c0.1,0.1,0.3,0.2,0.4,0.3c0.2,0.2,0.6,0.4,0.8,0.5c0.5,0.3,1,0.7,1.4,1
						c0.9,0.7,1.7,1.4,2.5,2.1c0.5,0.5,0.9,1,1.3,1.6c0.3,0.5,0.6,1,0.9,1.5c0.4,0.6,0.7,1.2,1.1,1.8c0.3,0.7,0.6,1.4,0.9,2.1
						c0.2,1.1,0.3,2.2,0.4,3.3c0.1,1.4,0.2,2.8,0.2,4.2c0,0.7-0.1,1.4-0.3,2.1c-0.4,1.1-0.8,2.1-1.2,3.2c-0.3,0.7-0.3,1.4,0,2
						s0.8,1.1,1.4,1.4c1.3,0.6,3.1,0,3.6-1.3c0.6-1.5,1.2-3,1.7-4.6c0.4-1.3,0.3-2.7,0.3-4.1c0-0.7-0.1-1.3-0.1-2
						c-0.1-2.6-0.4-5.4-1.5-7.8c-0.6-1.3-1.5-2.5-2.2-3.7c-0.4-0.6-0.8-1.3-1.2-1.9c-0.6-0.8-1.3-1.5-2-2.1S57,46.6,56.3,46
						c-0.4-0.3-0.8-0.6-1.2-0.9c-0.4-0.3-0.8-0.5-1.2-0.8c-0.5-1.2-0.9-2.4-1.4-3.6c-0.9-2.2-2-4.2-3.6-6.1c-1.3-1.5-2.8-2.9-4.5-4
						c-1.8-1.2-3.8-2.1-5.8-2.8c-0.9-0.3-1.9-0.6-2.9-0.8c-1-0.2-2.1-0.3-3.1-0.4c-0.8-0.1-1.6-0.1-2.3-0.1
						C29.7,26.7,29,26.8,28.2,26.8"/>
					<path id="Fill-292" class="st5" d="M50.2,94.1c-0.4,0.1-0.9,0.3-1.3,0.4c-0.4,0.1-0.8,0.3-1.2,0.5c-0.6,0.2-1.3,0.4-1.9,0.5
						c-0.1,0-0.3,0-0.4,0c-0.5-0.1-0.9-0.3-1.4-0.4c-1-0.3-2.1-0.5-3.1-0.4c-0.7,0.1-1.3,0.3-1.8,0.9s-0.8,1.3-0.8,2.1
						c0,1.6,1.2,3.1,2.6,3c0.3,0,0.6,0,0.9,0c0.5,0.1,1,0.3,1.5,0.5c0.7,0.2,1.5,0.4,2.2,0.4c0.6,0,1.2-0.2,1.8-0.3
						c0.7-0.1,1.3-0.4,2-0.6c0.4-0.1,0.7-0.3,1-0.4c0.4-0.1,0.8-0.3,1.2-0.4c1.3-0.4,2.1-2.1,1.8-3.7C53.1,94.8,52,94,50.9,94
						C50.7,94,50.4,94,50.2,94.1"/>
					<path id="Fill-294" class="st5" d="M73.4,94c-0.5,0-1,0.1-1.5,0.1c-0.8,0.1-1.7,0.2-2.5,0.3c-0.9,0.1-1.7,0.4-2.5,0.6
						c-0.4,0.2-0.7,0.4-1,0.7c-0.4,0.4-0.5,0.9-0.3,1.4s0.6,0.9,1.2,1.1c0.5,0.2,1.4,0.4,2.1,0.2c0.6-0.2,1.2-0.3,1.8-0.5
						c0.5-0.1,1-0.2,1.5-0.2c0.9-0.1,1.8-0.2,2.7-0.2c0.3,0,0.5,0.1,0.8,0.2s0.6,0.2,0.9,0.3c0.7,0.2,1.3,0.3,2.1,0.2
						c0.7-0.1,1.3-0.4,1.6-0.9c0.4-0.4,0.5-0.9,0.3-1.4c-0.2-0.4-0.6-0.9-1.2-1.1c-0.7-0.2-1.3-0.4-2-0.6C76.6,94,75.8,94,74.9,94
						C74.4,94,73.9,94,73.4,94"/>
				</g>
			</g>
			<g id="Group-22" transform="translate(787.000000, 260.000000)">
				<circle id="Oval-8" class="st6" cx="-5.5" cy="-201.5" r="31.5"/>
				<g id="Group-18" transform="translate(4.000000, 15.000000)">
					<g id="Group-13">
						<path id="Fill-315" class="st7" d="M-26-217c-0.4,0.1-0.8,0.4-1,0.8c-0.3,0.5-0.2,0.9-0.2,1.4c0.1,0.7,0.2,1.4,0.3,2.1
							c0.1,1.2,0.2,2.4,0.3,3.5c0,0.2,0,0.4,0.1,0.7c0.1,0.6,0.1,1.4,0.4,2c0.1,0.2,0.2,0.4,0.4,0.5c0.2,0.2,0.5,0.4,0.8,0.5
							c0.4,0.2,0.8,0.1,1.2,0c0.2-0.1,0.4-0.2,0.6-0.3c0.2-0.1,0.4-0.3,0.5-0.5c0.3-0.3,0.6-0.5,0.9-0.8c1.8-1.8,3.2-4,4.5-6.2
							c0.5-0.9,0.2-2-0.6-2.5c-0.8-0.5-1.9-0.2-2.4,0.7c-0.6,1.1-1.3,2.1-2,3.1c-0.3,0.4-0.6,0.8-0.9,1.2c0-0.1,0-0.2,0-0.3
							c-0.2-1.5-0.3-3-0.6-4.5c-0.1-0.4-0.4-0.9-0.8-1.1c-0.3-0.2-0.6-0.2-0.9-0.2C-25.7-217.1-25.8-217.1-26-217"/>
						<path id="Fill-317" class="st7" d="M-32.9-216.7L-32.9-216.7L-32.9-216.7 M-32.8-216.8L-32.8-216.8
							C-32.7-216.8-32.8-216.8-32.8-216.8 M-23.5-233c-2.2,0-4.5,0-6.7,0.6c-0.6,0.2-1.1,0.4-1.6,0.7c-0.5,0.2-0.9,0.4-1.3,0.6
							c-0.4,0.3-0.9,0.6-1.2,1c-0.4,0.4-0.8,0.9-1.1,1.4c-0.2,0.4-0.4,0.8-0.7,1.2c-0.1,0.4-0.3,0.8-0.5,1.2c-0.2,0.7-0.3,1.3-0.3,2
							c-0.2,1.2,0,2.4,0.1,3.6c0,0.5,0.1,0.9,0.2,1.4c0.1,0.7,0.2,1.3,0.3,2c0.1,0.4,0.2,0.8,0.4,1.2c0.2,0.6,0.5,1,0.9,1.5
							c0.2,0.2,0.4,0.4,0.6,0.5c0.2,0.1,0.4,0.2,0.7,0.3c0.1,0,0.2,0,0.2,0c0.2,0,0.4,0.1,0.5,0.1s0.2,0,0.3,0
							c0.7,0,1.4-0.1,2.1-0.1c0.1,0,0.3,0,0.4,0c0.2,0,0.3,0,0.5-0.1l0,0c0.3,0,0.5-0.1,0.8-0.1c0.9-0.1,1.8-0.1,2.7-0.2
							c0.4,0,0.8-0.1,1-0.4c0.3-0.3,0.4-0.7,0.4-1.1c0-0.8-0.7-1.6-1.5-1.5c-0.6,0-1.2,0.1-1.9,0.1c-0.7,0-1.3,0.1-2,0.2h-0.1
							c-0.1,0-0.1,0-0.2,0c-0.3,0-0.7,0.1-1,0.1c-0.6,0-1.1,0.1-1.7,0.1l0,0l0,0c-0.1-0.1-0.1-0.2-0.2-0.3c-0.2-0.7-0.4-1.3-0.5-2
							c-0.2-1.7-0.4-3.4-0.3-5.1c0.1-0.5,0.2-1,0.4-1.4c0.5-0.8,0.8-1.5,1.2-2c0.2-0.2,0.4-0.4,0.6-0.6c0.5-0.4,1-0.6,1.5-0.9
							c0.4-0.1,0.7-0.3,1.1-0.4c0.4-0.1,0.8-0.2,1.2-0.3c1.3-0.2,2.6-0.2,3.9-0.2h2c0.2,0,0.4,0,0.7,0c0.1,0,0.2,0,0.3,0
							c0.2,0,0.5,0,0.7,0c1.2,0.1,2.4,0.2,3.6,0.3c0.6,0.1,1.3,0.1,2,0.1c0.6,0,1.1,0.1,1.7,0.2c0.6,0.1,1.2,0.2,1.9,0.3
							c0.6,0.1,1.2,0.3,1.8,0.5c0.1,0,0.2,0.1,0.2,0.2c0.1,0.1,0.3,0.3,0.4,0.4c0.3,0.5,0.5,0.9,0.7,1.5c0.1,0.2,0.2,0.4,0.3,0.7
							c0.1,0.4,0.2,0.7,0.3,1.1c0.1,1,0.1,2.1,0.1,3.1s0.2,2,0.2,3c0,0.1,0,0.1,0,0.2c0,0.1-0.1,0.1-0.1,0.2
							c-0.1,0.1-0.1,0.1-0.2,0.2c-0.1,0.1-0.3,0.2-0.4,0.3c-0.1,0-0.3,0.1-0.4,0.1c-0.9,0.1-1.9,0.1-2.8,0.1c-0.4,0-0.8,0-1.3,0
							s-1.1,0-1.6,0c-0.9,0-1.8,0.1-2.8,0.2c-0.7,0.1-1.3,0.1-2,0.1c-0.8,0-1.5,0.7-1.5,1.5c0,0.8,0.7,1.5,1.5,1.5
							c0.4,0,0.8,0,1.3,0c0.6,0,1.1-0.1,1.7-0.1c0.6-0.1,1.2-0.1,1.8-0.1c0.4,0,0.8,0,1.2,0c0.3,0,0.5,0,0.8,0c0.7,0,1.3,0,2,0
							c0.8,0,1.6,0,2.4-0.2c0.5-0.1,0.9-0.3,1.4-0.5c0.6-0.4,1.1-0.9,1.5-1.5c0.4-0.6,0.5-1.3,0.5-2c0-0.4,0-0.8,0-1.1
							c0-0.8-0.1-1.5-0.1-2.3c0-0.8,0-1.7-0.1-2.5c0-0.4-0.1-0.8-0.2-1.2c-0.1-0.4-0.2-0.8-0.4-1.2c-0.2-0.4-0.3-0.7-0.5-1.1
							c-0.1-0.2-0.2-0.5-0.3-0.7c-0.2-0.5-0.6-0.9-0.9-1.3c-0.3-0.3-0.7-0.6-1.1-0.9c-0.3-0.2-0.7-0.3-1-0.4
							c-0.7-0.3-1.5-0.4-2.3-0.5c-0.9-0.2-1.7-0.3-2.6-0.4c-0.9-0.1-1.7-0.1-2.6-0.2c-0.8-0.1-1.6-0.1-2.4-0.2
							c-0.9-0.4-1.6-0.5-2.4-0.5c-0.1,0-0.2,0-0.3,0C-22.2-233-22.9-233-23.5-233"/>
						<path id="Fill-319" class="st7" d="M3.4-207.1c-0.2,0.5-0.4,1.1-0.6,1.7c-0.1,0.4-0.3,0.8-0.5,1.2c-0.2,0.5-0.4,0.9-0.6,1.4
							c-0.6-1.1-1.2-2.2-1.7-3.3c-0.4-0.8-1.3-1-2-0.6c-0.7,0.5-0.9,1.4-0.5,2.2c0.6,1.2,1.2,2.4,1.9,3.6c0.2,0.4,0.4,0.8,0.7,1.3
							s0.5,1.2,1.1,1.5c0.2,0.1,0.5,0.2,0.7,0.2c0.4,0,0.7-0.2,1.1-0.5c0.4-0.3,0.6-0.9,0.8-1.3c0.1-0.3,0.3-0.6,0.4-0.8
							c0.3-0.6,0.5-1.2,0.8-1.8c0.4-1.1,0.8-2.1,1.2-3.2c0.2-0.4,0.2-0.7,0.1-1.2c-0.1-0.4-0.4-0.8-0.7-1c-0.2-0.1-0.5-0.2-0.8-0.2
							C4.1-207.9,3.6-207.6,3.4-207.1"/>
						<path id="Fill-321" class="st7" d="M-4.4-206.2c0,0.9,0.7,1.7,1.6,1.7c0.9,0,1.6-0.8,1.6-1.7c0-0.9-0.7-1.7-1.6-1.7
							S-4.4-207.1-4.4-206.2"/>
						<path id="Fill-323" class="st7" d="M-14.2-213.8c0,1.1,0,2.2,0,3.2c0,0.7,0.1,1.5,0.4,2.1c0.1,0.3,0.3,0.7,0.4,1
							c0.3,0.5,0.7,1,1.2,1.4c0.7,0.5,1.5,0.7,2.3,0.7c0.3,0,0.7,0,1,0c0.6,0,1.2,0,1.8-0.1c1.4-0.1,2.9-0.1,4.3-0.1
							c0.8,0,1.5-0.7,1.5-1.6c0-0.8-0.7-1.6-1.5-1.6c-1.2,0.1-2.5,0.1-3.7,0.1s-2.4,0.1-3.6,0.1c-0.1,0-0.2,0-0.2-0.1
							c-0.1,0-0.2-0.1-0.2-0.1l-0.1-0.1c-0.1-0.2-0.2-0.4-0.3-0.5c-0.1-0.3-0.1-0.5-0.2-0.8c-0.1-1.2-0.1-2.4-0.1-3.7
							c0-0.9-0.7-1.6-1.5-1.6S-14.2-214.7-14.2-213.8"/>
						<g id="Clip-326">
						</g>
						<path id="Fill-325" class="st7" d="M15.4-209.9C15.3-209.8,15.3-209.8,15.4-209.9C15.3-209.8,15.3-209.8,15.4-209.9
							 M-7.7-226.4c0,0.9,0.7,1.5,1.5,1.6c1.6,0.1,3.1,0.1,4.7,0.1c1.4,0,2.8,0.1,4.1,0.2c1.4,0.1,2.7,0.1,4.1,0.3
							c1.3,0.1,2.6,0.3,3.9,0.5c0.6,0.1,1.3,0.3,1.9,0.4c0.6,0.1,1.1,0.3,1.7,0.5c0.2,0.1,0.3,0.2,0.5,0.3c0.1,0.1,0.3,0.3,0.4,0.5
							c0.1,0.2,0.3,0.5,0.4,0.7c0.3,0.8,0.5,1.6,0.6,2.4c0.1,1.2,0.2,2.4,0.2,3.7c0,1.2,0,2.4-0.1,3.6c0,0.2-0.1,0.5-0.2,0.7
							c-0.2,0.4-0.3,0.7-0.5,1c-0.1,0.1-0.3,0.2-0.4,0.2c-0.3,0.1-0.6,0.2-0.9,0.2c-0.7,0.1-1.4,0.1-2.1,0.1c-0.7,0-1.5,0-2.2,0
							s-1.3-0.1-2-0.1c-0.2,0-0.4,0-0.6,0c-0.4,0-0.9,0-1.3,0c-0.4,0-0.8,0.2-1,0.5c-0.3,0.3-0.4,0.7-0.4,1.1s0.2,0.8,0.4,1.1
							c0.3,0.3,0.6,0.4,1,0.5c0.4,0,0.9,0,1.3,0c0.2,0,0.4,0,0.6,0c0.6,0,1.3,0,1.9,0.1c0.8,0,1.5,0,2.3,0s1.5-0.1,2.3-0.1
							c1-0.1,2-0.4,2.8-1c0.6-0.4,1-1,1.3-1.6c0.2-0.3,0.3-0.6,0.4-1c0.2-0.5,0.3-0.9,0.3-1.4c0-0.4,0.1-0.8,0.1-1.2
							c0-0.8,0-1.6,0-2.5c0-0.8,0-1.5-0.1-2.3c-0.1-0.9-0.1-1.8-0.3-2.7c-0.2-1-0.5-2-0.9-2.9c-0.2-0.5-0.6-0.9-0.9-1.3
							c-0.2-0.3-0.5-0.6-0.8-0.8c-0.2-0.1-0.4-0.3-0.6-0.4c-0.2-0.1-0.5-0.2-0.7-0.3c-0.2-0.2-0.4-0.3-0.5-0.3
							c-0.4-0.1-0.7-0.2-1.1-0.3c-0.7-0.2-1.4-0.4-2.2-0.5c-0.8-0.1-1.7-0.2-2.5-0.3c-1.5-0.2-3-0.3-4.5-0.4
							c-0.8-0.1-1.7-0.1-2.5-0.1s-1.7-0.1-2.5-0.1c-1.8,0-3.6,0-5.4-0.1l0,0C-7-228-7.7-227.2-7.7-226.4"/>
					</g>
				</g>
			</g>
		</g>
	</g>
</g>
</svg>
