<?xml version="1.0" encoding="UTF-8"?>
<svg width="313px" height="70px" viewBox="0 0 313 70" version="1.1" xmlns="http://www.w3.org/2000/svg" xmlns:xlink="http://www.w3.org/1999/xlink">
    <!-- Generator: Sketch 51.3 (57544) - http://www.bohemiancoding.com/sketch -->
    <title>Group 20</title>
    <desc>Created with Sketch.</desc>
    <defs>
        <path d="M29.3436,0.405470588 L29.3436,17.7258824 C28.593,17.4926471 27.666,17.2755588 26.5662,17.0692353 C25.4664,16.8665 24.2496,16.7642353 22.9176,16.7642353 C19.62,16.7642353 16.623,17.3168235 13.9302,18.4255882 C11.2392,19.5343529 8.9226,21.0647353 6.984,23.0167353 C5.0418,24.9723235 3.5532,27.2759706 2.5128,29.9276765 C1.4688,32.5829706 0.9486,35.4553529 0.9486,38.5448235 C0.9486,42.2191765 1.5282,45.5885294 2.6838,48.6475 C3.843,51.7100588 5.5206,54.1751765 7.722,56.0392647 C9.1692,57.2646471 10.8054,58.2137353 12.627,58.8829412 C14.454,59.5521471 16.4628,59.8876471 18.6642,59.8876471 C20.574,59.8876471 22.5414,59.4516765 24.5682,58.5761471 C26.595,57.7006176 28.359,56.3604118 29.8674,54.5519412 L30.6468,58.7501765 L44.0208,58.7501765 L44.0208,0.405470588 L29.3436,0.405470588 Z M17.4906,44.9731471 C16.3026,43.4876176 15.7122,41.5194706 15.7122,39.0687059 C15.7122,35.7442059 16.5348,33.2665294 18.1854,31.6356765 C19.836,30.0012353 21.9618,29.1849118 24.5682,29.1849118 C26.2476,29.1849118 27.837,29.4468529 29.3436,29.9725294 L29.3436,39.8581176 C29.3436,42.1904706 28.8072,43.9971471 27.738,45.2799412 C26.667,46.5645294 25.0614,47.2050294 22.9176,47.2050294 C20.4876,47.2050294 18.6768,46.4622647 17.4906,44.9731471 Z" id="path-1"></path>
        <path d="M7.67888235,6.10285714 L3.68170588,4.11428571 L0.864352941,5.46342857 L4.38558824,12.1371429 C2.27211765,11.4788571 0.862529412,12.1542857 0.862529412,12.1542857 L2.03505882,14.3794286 L3.44647059,17.0468571 L4.619,19.2702857 C4.619,19.2702857 6.02858824,18.5965714 6.73429412,16.5857143 L10.2573529,23.2577143 L13.0783529,21.9085714 L13.7840588,17.6674286 C13.7840588,17.6674286 26.0035294,16.2771429 30.938,2.208 C27.7814706,1.224 24.9130588,0.836571429 22.3528235,0.836571429 C12.9142353,0.834857143 7.67888235,6.10285714 7.67888235,6.10285714 Z M17.577,8.60742857 C16.6579412,6.86914286 17.4037647,4.74857143 19.2400588,3.86914286 C21.0745294,2.98971429 23.3083529,3.68571429 24.2255882,5.424 C25.1446471,7.16228571 24.4006471,9.28457143 22.5625294,10.164 C22.0245882,10.4211429 21.4501765,10.5445714 20.8848824,10.5445714 C19.53,10.5445714 18.2243529,9.83657143 17.577,8.60742857 Z" id="path-3"></path>
    </defs>
    <g id="Page-1" stroke="none" stroke-width="1" fill="none" fill-rule="evenodd">
        <g id="Desktop" transform="translate(-352.000000, -100.000000)">
            <g id="Group-20" transform="translate(352.000000, 100.000000)">
                <polygon id="Fill-1" fill="#FFC300" points="73 67 87 67 87 31 73 31"></polygon>
                <g id="Group-4" transform="translate(90.000000, 9.000000)">
                    <mask id="mask-2" fill="white">
                        <use xlink:href="#path-1"></use>
                    </mask>
                    <g id="Clip-3"></g>
                    <polygon id="Fill-2" fill="#38AF5B" mask="url(#mask-2)" points="-8.0514 68.8582353 53.0208 68.8582353 53.0208 -8.56511765 -8.0514 -8.56511765"></polygon>
                </g>
                <polygon id="Fill-5" fill="#2CA9E4" points="35 42.681564 49.842122 68 68 68 46.4913528 33"></polygon>
                <polygon id="Fill-6" fill="#2CA9E4" points="18 59.1792084 18 67 32 67 32 43"></polygon>
                <polygon id="Fill-7" fill="#2CA9E4" points="18 9 18 47 32 32.5290083 32 9"></polygon>
                <g id="Group-10" transform="translate(63.000000, 0.000000)">
                    <mask id="mask-4" fill="white">
                        <use xlink:href="#path-3"></use>
                    </mask>
                    <g id="Clip-9"></g>
                    <polygon id="Fill-8" fill="#EC2219" mask="url(#mask-4)" points="-3.18224118 -14.7104571 42.0139353 -4.11617143 31.1147 36.9804 -14.0833 26.3878286"></polygon>
                </g>
                <g id="Group-19" transform="translate(0.000000, 13.000000)" fill="#FFFFFF">
                    <path d="M2.56639773,53.0833333 C2.11323864,53.0833333 1.65651136,52.9456667 1.26222727,52.6596061 C0.263136364,51.9355152 0.040125,50.5391818 0.760897727,49.5397576 C8.77681818,38.4334545 17.0781932,28.9433939 25.4313068,21.3323939 C33.8111818,13.6981515 43.7681932,6.72721212 55.0275909,0.610878788 C56.1105341,0.0244545455 57.4664432,0.426727273 58.051625,1.51018182 C58.6385909,2.59542424 58.2353864,3.95242424 57.1542273,4.54063636 C46.2088295,10.4853333 36.5461932,17.2470909 28.4321477,24.6381818 C20.3038295,32.0435758 12.2111932,41.303 4.37546591,52.1572121 C3.94014773,52.7615152 3.258625,53.0833333 2.56639773,53.0833333" id="Fill-11"></path>
                    <path d="M8.97966932,57.0012909 C8.54613523,57.0012909 8.10724886,56.8743515 7.72188523,56.6097455 C6.70495341,55.9124727 6.44447614,54.521503 7.14205568,53.5042 C13.2739761,44.5272606 20.6279989,36.1099273 29.0007375,28.4828364 C37.3788284,20.8503818 47.3358398,13.8776545 58.5970216,7.76132121 C59.6799648,7.17489697 61.0340898,7.57538182 61.6192716,8.66241212 C62.2062375,9.74765455 61.803033,11.1046545 60.7218739,11.6928667 C49.7764761,17.6357758 40.1138398,24.3993212 31.9997943,31.7904121 C23.8839648,39.1850788 16.7583057,47.3395939 10.8208511,56.0286848 C10.3891011,56.6615939 9.6897375,57.0012909 8.97966932,57.0012909" id="Fill-13"></path>
                    <path d="M240.040494,38.6876909 C240.040494,39.6942667 239.774665,40.6489939 239.243006,41.5447212 C238.713131,42.4404485 238.026256,43.2253273 237.187733,43.8975697 C236.350994,44.5698121 235.385801,45.1008121 234.295722,45.4941455 C233.205642,45.8856909 232.074528,46.0823576 230.900597,46.0823576 C228.552733,46.0823576 226.775778,45.6067818 225.576869,44.6538424 C224.374392,43.700903 223.773153,42.3850242 223.773153,40.7044182 C223.773153,39.0792364 224.415426,37.6364182 225.701756,36.3759636 C226.988085,35.1155091 229.223551,34.4861758 232.409937,34.4861758 C233.023665,34.4861758 233.764062,34.5004788 234.631131,34.527297 C235.496415,34.555903 236.322449,34.5970242 237.103881,34.6542364 C238.054801,34.7096606 239.034267,34.7668727 240.040494,34.822297 L240.040494,38.6876909 Z M248.340085,20.4102061 C247.558653,18.6455697 246.440028,17.1330242 244.985994,15.8725697 C243.533744,14.6121152 241.787119,13.6323576 239.746119,12.9315091 C237.705119,12.2324485 235.426835,11.8820242 232.911267,11.8820242 C230.563403,11.8820242 228.509915,12.0357818 226.749017,12.343297 C224.986335,12.6508121 223.43596,13.0441455 222.094324,13.5197212 C220.752687,13.995297 219.578756,14.5280848 218.574312,15.116297 C217.566301,15.706297 216.672472,16.2784182 215.89104,16.8398121 L220.419062,23.5622364 C221.705392,22.7219333 223.186187,21.9370545 224.861449,21.2093879 C226.540278,20.4799333 228.775744,20.1169939 231.569631,20.1169939 C234.085199,20.1169939 236.127983,20.6766 237.692631,21.7976 C239.257278,22.9186 240.040494,24.4579636 240.040494,26.4192667 L240.040494,27.3436 C238.977176,27.2881758 237.942403,27.2309636 236.93796,27.1755394 C236.044131,27.1183273 235.119972,27.0772061 234.169051,27.0486 C233.219915,27.0217818 232.352847,27.0074788 231.569631,27.0074788 C229.00054,27.0074788 226.650892,27.3149939 224.527824,27.9318121 C222.401187,28.5486303 220.586767,29.4568727 219.077426,30.661903 C217.566301,31.8669333 216.394153,33.3508727 215.553847,35.1155091 C215.009699,36.2651152 214.660017,37.5237818 214.469119,38.8736303 C211.004415,41.0780848 205.514767,44.5036606 204.863574,44.821903 C203.941199,45.2706606 202.695903,45.4941455 201.131256,45.4941455 C199.455994,45.4941455 198.239244,44.8916303 197.48279,43.6866 C196.731687,42.4833576 196.35346,40.7598424 196.35346,38.5196303 L196.35346,21.2934182 L206.918847,21.2934182 L206.918847,13.2265091 L196.35346,13.2265091 L196.35346,0.45390303 L186.458892,0.45390303 L186.458892,13.2265091 C186.458892,13.2265091 162.252347,11.8820242 158.787642,11.8820242 C156.82871,11.8820242 154.887619,12.1627212 152.959017,12.7223273 C151.030415,13.2819333 149.298062,14.0793273 147.760176,15.116297 C146.22229,16.1532667 144.978778,17.4423273 144.029642,18.9834788 C143.078722,20.5228424 142.604153,22.2731758 142.604153,24.2344788 C142.604153,26.1385697 143.007358,27.7762667 143.819119,29.1493576 C144.629097,30.5224485 145.665653,31.6988727 146.921653,32.6786303 C148.179437,33.6583879 149.535347,34.4307515 150.989381,34.9903576 C152.441631,35.5499636 153.840358,35.9987212 155.181994,36.3348424 C157.360369,36.8390242 159.094506,37.3146 160.380835,37.7633576 C161.665381,38.2103273 162.673392,38.6590848 163.397733,39.1078424 C164.125642,39.5548121 164.60021,40.0178727 164.825006,40.4934485 C165.048017,40.9690242 165.158631,41.4875091 165.158631,42.048903 C165.158631,43.3379636 164.516358,44.2605091 163.230028,44.821903 C161.945483,45.3815091 160.239892,45.6622061 158.11504,45.6622061 C155.711869,45.6622061 153.574528,45.2545697 151.701233,44.4428727 C149.829722,43.6311758 148.277562,42.6085091 147.048324,41.3766606 L141.093028,47.8469939 C142.882472,49.8637212 145.258881,51.3887818 148.220472,52.4257515 C151.183847,53.4627212 154.511176,53.9812061 158.200676,53.9812061 C160.491449,53.9812061 162.657335,53.6862061 164.698335,53.0979939 C166.739335,52.5097818 168.526994,51.6837818 170.064881,50.6199939 C171.602767,49.5562061 172.817733,48.2528424 173.711562,46.7116909 C174.607176,45.1705394 175.053199,43.4488121 175.053199,41.5447212 C175.053199,39.6388424 174.746335,38.0011455 174.132608,36.6280545 C173.517097,35.2567515 172.63754,34.0660242 171.490369,33.0576606 C170.344983,32.049297 168.974801,31.2089939 167.381608,30.5367515 C165.788415,29.8645091 163.986483,29.3031152 161.972244,28.8561455 C158.730551,28.0712667 156.341653,27.329297 154.805551,26.6284485 C153.265881,25.9276 152.498722,24.9621455 152.498722,23.730297 C152.498722,22.7219333 152.959017,21.8673273 153.881392,21.1664788 C154.805551,20.4674182 156.439778,20.1169939 158.787642,20.1169939 C161.133722,20.1169939 186.458892,21.2934182 186.458892,21.2934182 L186.458892,39.1918727 C186.458892,41.3766606 186.681903,43.3790848 187.12971,45.1991455 C187.577517,47.0209939 188.316131,48.5746606 189.350903,49.8637212 C190.385676,51.1527818 191.741585,52.1450545 193.416847,52.845903 C195.095676,53.5467515 197.134892,53.8971758 199.539847,53.8971758 C201.885926,53.8971758 204.010778,53.5467515 205.912619,52.845903 C209.129335,51.5568424 212.961562,48.9250848 215.57704,46.9548424 C216.379881,48.5228121 217.418222,49.8190242 218.699199,50.8291758 C220.01229,51.8661455 221.466324,52.6367212 223.059517,53.140903 C224.65271,53.6450848 226.258392,53.8971758 227.881915,53.8971758 C230.563403,53.8971758 232.996903,53.3929939 235.175278,52.3846303 C237.357222,51.3762667 238.977176,50.2284485 240.040494,48.9393879 L240.292051,52.6367212 L249.515801,52.6367212 L249.515801,26.1671758 C249.515801,24.0932364 249.125085,22.1748424 248.340085,20.4102061 Z" id="Fill-15"></path>
                    <path d="M308.370819,43.2246121 C307.532297,43.8414303 306.650956,44.3742182 305.730365,44.8211879 C304.806206,45.2699455 303.564478,45.4934303 301.998047,45.4934303 C300.319217,45.4934303 299.104251,44.8909152 298.351365,43.6876727 C297.59491,42.4826424 297.218467,40.7609152 297.218467,38.5189152 L297.218467,21.292703 L307.783853,21.292703 L307.783853,13.2257939 L297.218467,13.2257939 L297.218467,0.453187879 L287.322115,0.453187879 L287.322115,13.2257939 L273.527524,13.2257939 C271.381262,13.4492788 270.375035,13.9266424 269.425899,14.4862485 C268.474978,15.0458545 267.650728,15.6626727 266.951365,16.3349152 C266.253785,17.0071576 265.679308,17.6239758 265.233285,18.1835818 L264.981728,13.2257939 L255.504637,13.2257939 L255.504637,52.6360061 L265.40099,52.6360061 L265.40099,31.3763394 C265.40099,29.9210061 265.665035,28.6033394 266.196694,27.4269152 C266.728353,26.2504909 267.44199,25.2421273 268.335819,24.4018242 C269.231433,23.5615212 270.291183,22.9178848 271.522206,22.4691273 C272.585524,22.0811576 275.561387,21.3892485 278.526547,21.292703 L287.322115,21.292703 L287.322115,39.1911576 C287.322115,41.3759455 287.54691,43.3783697 287.994717,45.1984303 C288.44074,47.0202788 289.182922,48.5757333 290.21591,49.8630061 C291.248899,51.1520667 292.606592,52.1461273 294.283637,52.8469758 C295.960683,53.5460364 298.001683,53.8964606 300.403069,53.8964606 C302.752717,53.8964606 304.877569,53.5460364 306.775842,52.8469758 C308.677683,52.1461273 310.606285,50.9840061 312.563433,49.3588242 L308.370819,43.2246121 Z" id="Fill-17"></path>
                </g>
            </g>
        </g>
    </g>
</svg>